<svg class="title-route-logo dark" fill="none" height="18" viewBox="0 0 22 18" width="22" xmlns="http://www.w3.org/2000/svg"><g fill="#9cf5f5"><path d="m8.11936 5.38426c1.46619-1.45896 3.84564-1.45896 5.31184 0l8.5688 8.52304-2.7219 2.7085c-1.4662 1.459-3.8456 1.459-5.3118 0l-5.90402-5.8749c-.10346-.1029-.21404-.1988-.3282-.2875-.48873-.4225-1.03811-.77033-1.64099-1.01882-.5244-.21654-1.06665-.35498-1.62316-.41888z"/><path d="m.288957 16.3987c.192638.4544.470893.8661.820493 1.214l5.30825-5.2821c-.3496-.3514-.76342-.6283-1.22004-.8164-.45306-.1882-.94179-.2876-1.43765-.2876-.49587 0-.9846.0959-1.44122.284-.45662.1846-.87044.4615-1.22004.8094-.346035.3478-.62429.7596-.81336 1.214-.189071.4544-.28539.9407-.28539 1.4341s.0998864.9798.288957 1.4306z"/></g></svg>