<svg class="rm-protected-badge-x-small rm-dark" width="123" height="24" viewBox="0 0 123 24" fill="none" xmlns="http://www.w3.org/2000/svg"><rect width="123" height="24" rx="12" fill="#212122"/><circle cx="12" cy="12" r="8" fill="black"/><path d="M11.5501 8.6712V12.7209H10.0012C9.71334 12.7209 9.53105 12.4054 9.67021 12.148L11.5501 8.6712Z" fill="url(#paint0_linear_3349_43382)"/><path d="M12.4493 15.3169V11.1074H14.0846C14.3725 11.1074 14.5548 11.4229 14.4156 11.6803L12.4493 15.3169Z" fill="url(#paint1_linear_3349_43382)"/><path d="M11.5191 6.31439C11.5524 6.33817 11.5721 6.37653 11.5721 6.41741V7.41861C11.5721 7.46824 11.5431 7.51329 11.4979 7.53386L8.06108 9.0993C7.96759 9.15524 7.89279 9.23093 7.84118 9.31734C7.78663 9.40866 7.7591 9.50986 7.75894 9.6111V14.3956C7.7591 14.4969 7.78663 14.5981 7.84118 14.6894C7.89279 14.7758 7.96759 14.8515 8.06109 14.9074L11.4784 16.464C11.5236 16.4845 11.5526 16.5296 11.5526 16.5792V17.5825C11.5526 17.6237 11.5326 17.6622 11.499 17.686C11.4653 17.7097 11.4223 17.7156 11.3835 17.7018C11.2955 17.6705 11.2096 17.6324 11.1268 17.5877L7.56517 15.9654C7.55092 15.9589 7.53693 15.9518 7.52323 15.9442C7.24934 15.7912 7.01831 15.5691 6.85608 15.2975C6.69368 15.0256 6.60678 14.7142 6.60645 14.396V9.6101C6.60678 9.29184 6.6937 8.98105 6.85608 8.7092C7.01831 8.4376 7.24934 8.21556 7.52323 8.06253C7.53692 8.05488 7.55091 8.0478 7.56517 8.04131L11.1268 6.41902C11.2162 6.37074 11.3091 6.3302 11.4045 6.29758C11.4432 6.28436 11.4858 6.29062 11.5191 6.31439Z" fill="url(#paint2_linear_3349_43382)"/><path d="M12.4808 6.31439C12.514 6.29062 12.5567 6.28436 12.5954 6.29758C12.6908 6.3302 12.7837 6.37074 12.873 6.41902L16.4347 8.04131C16.449 8.0478 16.463 8.05488 16.4767 8.06253C16.7505 8.21556 16.9816 8.4376 17.1438 8.7092C17.3062 8.98109 17.3931 9.29238 17.3934 9.6106L17.3934 14.3965C17.3931 14.7147 17.3062 15.0257 17.1438 15.2975C16.9816 15.5691 16.7506 15.7912 16.4767 15.9442C16.463 15.9518 16.449 15.9589 16.4347 15.9654L12.873 17.5877C12.7903 17.6324 12.7044 17.6705 12.6164 17.7018C12.5776 17.7156 12.5345 17.7097 12.5009 17.686C12.4673 17.6622 12.4473 17.6237 12.4473 17.5825V16.5792C12.4473 16.5296 12.4763 16.4845 12.5215 16.464L15.9388 14.9074C16.0323 14.8515 16.1071 14.7758 16.1587 14.6894C16.2133 14.598 16.2408 14.4968 16.2409 14.3955L16.2409 9.61136C16.2408 9.51008 16.2133 9.4087 16.1587 9.31734C16.1071 9.23093 16.0323 9.15524 15.9388 9.0993L12.5019 7.53386C12.4568 7.51329 12.4278 7.46824 12.4278 7.41861V6.41741C12.4278 6.37653 12.4475 6.33817 12.4808 6.31439Z" fill="url(#paint3_linear_3349_43382)"/><path d="M25.112 16H23.869V8.3H26.795C28.511 8.3 29.556 9.257 29.556 10.852C29.556 12.436 28.511 13.404 26.795 13.404H25.112V16ZM25.112 9.444V12.26H26.784C27.774 12.26 28.302 11.765 28.302 10.852C28.302 9.939 27.774 9.444 26.784 9.444H25.112ZM31.8272 16.121C30.6832 16.121 30.0232 15.582 30.0232 14.581C30.0232 13.47 31.0022 13.096 32.1022 12.909L33.4992 12.667V12.48C33.4992 11.699 33.1252 11.435 32.4432 11.435C31.7722 11.435 31.4202 11.71 31.3542 12.26H30.1552C30.2322 11.072 31.2222 10.467 32.4872 10.467C33.9612 10.467 34.6982 11.105 34.6982 12.711V16H33.5542V15.263C33.1032 15.901 32.5862 16.121 31.8272 16.121ZM32.1462 15.164C32.8612 15.164 33.4992 14.68 33.4992 13.943V13.547L32.4322 13.723C31.6842 13.855 31.2112 13.976 31.2112 14.515C31.2112 14.944 31.4972 15.164 32.1462 15.164ZM38.2866 16.121C36.7136 16.121 35.7016 15.01 35.7016 13.294C35.7016 11.578 36.7136 10.467 38.2866 10.467C39.5296 10.467 40.4756 11.171 40.7286 12.392H39.5076C39.3096 11.798 38.8806 11.512 38.2866 11.512C37.4066 11.512 36.8786 12.139 36.8786 13.294C36.8786 14.449 37.4066 15.076 38.2866 15.076C38.8916 15.076 39.3426 14.79 39.5296 14.108H40.7396C40.4976 15.373 39.5626 16.121 38.2866 16.121ZM42.8897 16H41.7017V8.3H42.8897V12.788L45.1447 10.588H46.6407L44.0117 13.063L46.6957 16H45.1887L42.8897 13.536V16ZM48.7276 16.121C47.5836 16.121 46.9236 15.582 46.9236 14.581C46.9236 13.47 47.9026 13.096 49.0026 12.909L50.3996 12.667V12.48C50.3996 11.699 50.0256 11.435 49.3436 11.435C48.6726 11.435 48.3206 11.71 48.2546 12.26H47.0556C47.1326 11.072 48.1226 10.467 49.3876 10.467C50.8616 10.467 51.5986 11.105 51.5986 12.711V16H50.4546V15.263C50.0036 15.901 49.4866 16.121 48.7276 16.121ZM49.0466 15.164C49.7616 15.164 50.3996 14.68 50.3996 13.943V13.547L49.3326 13.723C48.5846 13.855 48.1116 13.976 48.1116 14.515C48.1116 14.944 48.3976 15.164 49.0466 15.164ZM55.2971 18.486C53.8341 18.486 52.8331 17.793 52.7671 16.517H54.0101C54.1091 17.232 54.5271 17.474 55.2971 17.474C56.2431 17.474 56.5951 16.979 56.5951 15.89V15.307C56.1551 15.835 55.6821 16.055 55.0221 16.055C53.5591 16.055 52.6021 14.966 52.6021 13.261C52.6021 11.567 53.5591 10.467 55.0221 10.467C55.7151 10.467 56.1991 10.72 56.6501 11.237V10.588H57.7831V15.846C57.7831 17.507 57.0241 18.486 55.2971 18.486ZM55.1981 15.01C56.1001 15.01 56.6171 14.405 56.6171 13.261C56.6171 12.117 56.1001 11.512 55.1981 11.512C54.3181 11.512 53.7791 12.117 53.7791 13.261C53.7791 14.405 54.3181 15.01 55.1981 15.01ZM62.7015 14.361H63.9225C63.5265 15.67 62.5255 16.121 61.5025 16.121C59.9185 16.121 58.8515 15.01 58.8515 13.294C58.8515 11.38 60.0615 10.467 61.4255 10.467C62.9655 10.467 63.9005 11.622 63.9005 13.195V13.525H60.0725C60.1385 14.614 60.6995 15.109 61.5025 15.109C62.1625 15.109 62.5035 14.856 62.7015 14.361ZM61.4255 11.446C60.7435 11.446 60.2485 11.82 60.1055 12.7H62.6465C62.5805 11.853 62.1405 11.446 61.4255 11.446ZM69.1129 16H67.8699V8.3H70.7959C72.5119 8.3 73.5569 9.257 73.5569 10.852C73.5569 12.436 72.5119 13.404 70.7959 13.404H69.1129V16ZM69.1129 9.444V12.26H70.7849C71.7749 12.26 72.3029 11.765 72.3029 10.852C72.3029 9.939 71.7749 9.444 70.7849 9.444H69.1129ZM75.7346 16H74.5466V10.588H75.6796V11.457C75.9876 10.808 76.4936 10.533 77.0656 10.533C77.1866 10.533 77.3406 10.544 77.4616 10.577V11.699C77.2636 11.666 77.1646 11.655 76.9996 11.655C76.1636 11.655 75.7346 12.227 75.7346 13.393V16ZM80.4836 16.121C78.8996 16.121 77.8656 15.01 77.8656 13.294C77.8656 11.578 78.8996 10.467 80.4836 10.467C82.0676 10.467 83.0906 11.578 83.0906 13.294C83.0906 15.01 82.0676 16.121 80.4836 16.121ZM80.4836 15.076C81.3746 15.076 81.8916 14.449 81.8916 13.294C81.8916 12.128 81.3746 11.512 80.4836 11.512C79.5816 11.512 79.0646 12.128 79.0646 13.294C79.0646 14.449 79.5816 15.076 80.4836 15.076ZM85.8497 16.099C84.7167 16.099 84.3097 15.516 84.3097 14.636V11.633H83.5617V10.588H84.3097V9.037H85.4977V10.588H86.6197V11.633H85.4977V14.361C85.4977 14.801 85.6187 15.032 86.1467 15.032C86.3337 15.032 86.4547 15.01 86.6197 14.977V16C86.3667 16.055 86.0917 16.099 85.8497 16.099ZM90.9702 14.361H92.1912C91.7952 15.67 90.7942 16.121 89.7712 16.121C88.1872 16.121 87.1202 15.01 87.1202 13.294C87.1202 11.38 88.3302 10.467 89.6942 10.467C91.2342 10.467 92.1692 11.622 92.1692 13.195V13.525H88.3412C88.4072 14.614 88.9682 15.109 89.7712 15.109C90.4312 15.109 90.7722 14.856 90.9702 14.361ZM89.6942 11.446C89.0122 11.446 88.5172 11.82 88.3742 12.7H90.9152C90.8492 11.853 90.4092 11.446 89.6942 11.446ZM95.4604 16.121C93.8874 16.121 92.8754 15.01 92.8754 13.294C92.8754 11.578 93.8874 10.467 95.4604 10.467C96.7034 10.467 97.6494 11.171 97.9024 12.392H96.6814C96.4834 11.798 96.0544 11.512 95.4604 11.512C94.5804 11.512 94.0524 12.139 94.0524 13.294C94.0524 14.449 94.5804 15.076 95.4604 15.076C96.0654 15.076 96.5164 14.79 96.7034 14.108H97.9134C97.6714 15.373 96.7364 16.121 95.4604 16.121ZM100.57 16.099C99.4365 16.099 99.0295 15.516 99.0295 14.636V11.633H98.2815V10.588H99.0295V9.037H100.218V10.588H101.34V11.633H100.218V14.361C100.218 14.801 100.339 15.032 100.867 15.032C101.054 15.032 101.175 15.01 101.34 14.977V16C101.087 16.055 100.812 16.099 100.57 16.099ZM103.478 9.598H102.235V8.432H103.478V9.598ZM103.445 16H102.257V10.588H103.445V16ZM107.13 16.121C105.546 16.121 104.512 15.01 104.512 13.294C104.512 11.578 105.546 10.467 107.13 10.467C108.714 10.467 109.737 11.578 109.737 13.294C109.737 15.01 108.714 16.121 107.13 16.121ZM107.13 15.076C108.021 15.076 108.538 14.449 108.538 13.294C108.538 12.128 108.021 11.512 107.13 11.512C106.228 11.512 105.711 12.128 105.711 13.294C105.711 14.449 106.228 15.076 107.13 15.076ZM111.99 16H110.802V10.588H111.935V11.281C112.342 10.72 112.837 10.467 113.552 10.467C114.828 10.467 115.466 11.171 115.466 12.733V16H114.278V12.832C114.278 11.897 113.959 11.534 113.255 11.534C112.386 11.534 111.99 12.117 111.99 13.129V16Z" fill="white"/><defs><linearGradient id="paint0_linear_3349_43382" x1="14.4633" y1="11.9941" x2="9.62256" y2="11.9941" gradientUnits="userSpaceOnUse"><stop stop-color="#70E1E1"/><stop offset="1" stop-color="#28D9D9"/></linearGradient><linearGradient id="paint1_linear_3349_43382" x1="14.4633" y1="11.9941" x2="9.62256" y2="11.9941" gradientUnits="userSpaceOnUse"><stop stop-color="#70E1E1"/><stop offset="1" stop-color="#28D9D9"/></linearGradient><linearGradient id="paint2_linear_3349_43382" x1="17.3934" y1="12" x2="6.60645" y2="12" gradientUnits="userSpaceOnUse"><stop stop-color="#70E1E1"/><stop offset="1" stop-color="#28D9D9"/></linearGradient><linearGradient id="paint3_linear_3349_43382" x1="17.3934" y1="12" x2="6.60645" y2="12" gradientUnits="userSpaceOnUse"><stop stop-color="#70E1E1"/><stop offset="1" stop-color="#28D9D9"/></linearGradient></defs></svg>