<svg class="rm-carbon-neutral-badge" width="176" height="30" viewBox="0 0 176 30" fill="none" xmlns="http://www.w3.org/2000/svg"><rect width="176" height="30" rx="15" fill="#F5F5F5"/><circle cx="15" cy="15" r="9" fill="white"/><path d="M16.9476 15.1397C16.5912 15.1397 16.38 14.8363 16.1556 14.5989C15.9906 14.4209 15.8256 14.2428 15.6606 14.0648L14.9742 13.3196L14.3142 14.0714L13.4694 14.9419C13.3374 15.0737 13.1724 15.1397 13.0008 15.1397C12.8292 15.1397 12.6642 15.0803 12.5322 14.9484C12.2682 14.6913 12.2682 14.2758 12.5256 14.012L14.9742 11.5061L17.4294 14.012C17.6868 14.2758 17.6802 14.6913 17.4228 14.9484C17.2908 15.0737 17.1258 15.1397 16.9542 15.1397H16.9476ZM21.5808 14.4275C21.528 13.9659 21.4818 13.5372 21.3036 12.9898C20.9934 12.0402 20.4456 11.1499 19.8714 10.5301C19.647 10.2926 19.4028 10.0618 19.1454 9.8574C18.987 9.73211 18.822 9.60681 18.657 9.4947C18.3798 9.31005 18.0894 9.15178 17.7858 9.0067C17.5548 8.90118 17.3238 8.80227 17.0862 8.72313C16.8024 8.63081 16.512 8.55826 16.2216 8.50551C15.8058 8.43956 15.39 8.39999 14.9676 8.39999C14.5518 8.39999 14.136 8.44616 13.7268 8.53189C13.5354 8.57145 13.3044 8.62421 13.113 8.67697C12.7434 8.78908 12.42 8.91437 12.0702 9.08583C11.7798 9.23092 11.496 9.40897 11.232 9.59362C10.968 9.77827 10.7172 9.97611 10.4796 10.1937C10.242 10.4114 10.0242 10.6488 9.82623 10.8994C9.62823 11.1499 9.44343 11.4137 9.27843 11.6973C9.17943 11.8622 9.01443 12.1985 8.88243 12.5018C8.80323 12.6865 8.73723 12.8909 8.71743 12.9437C8.65143 13.2009 8.57223 13.4119 8.51943 13.7087C8.46003 14.1439 8.37423 14.6649 8.40723 15.1595C8.44683 16.7026 8.97483 18.0611 9.95163 19.235C10.143 19.4855 10.539 19.8812 10.9614 20.2044C11.0406 20.2769 11.694 20.7319 12.1164 20.9232C12.288 21.0155 12.7566 21.1936 12.783 21.2067C12.8622 21.2331 12.9612 21.2529 13.1262 21.2199C13.2318 21.2001 13.3704 21.121 13.4496 21.0419C13.5288 20.9561 13.5618 20.8902 13.5882 20.8374C13.6542 20.699 13.674 20.4286 13.5618 20.2571C13.476 20.0857 13.3044 19.9801 13.2054 19.9538C12.2022 19.5845 11.3904 18.958 10.7502 18.1073C9.82623 16.8609 9.50283 15.2452 9.90543 13.6427C9.93183 13.491 10.1364 12.8975 10.2552 12.7063C10.6182 11.8951 11.5422 10.7741 12.8358 10.1871C14.3142 9.52767 16.0434 9.55405 17.5812 10.3916C19.053 11.2093 20.0826 12.7393 20.2542 14.4341C20.3202 14.988 20.274 15.5552 20.1816 16.03C20.0298 16.8873 19.6008 17.7248 19.0794 18.3447C18.5514 19.0041 17.7594 19.5845 16.9938 19.8812C16.8816 19.934 16.5846 20.0395 16.3536 20.0922C16.2282 20.1252 16.0764 20.1648 15.9708 20.178C15.8652 20.1978 15.7992 20.2044 15.6672 20.2373V17.0521C15.8322 17.2302 15.9972 17.4082 16.1622 17.5863C16.38 17.8237 16.5912 18.1271 16.9542 18.1271C17.1258 18.1271 17.2908 18.0677 17.4228 17.9358C17.6868 17.6786 17.6868 17.2632 17.4294 16.9994L14.9742 14.4934L12.5256 16.9994C12.2682 17.2632 12.2748 17.6786 12.5322 17.9358C12.6642 18.0611 12.8292 18.1271 13.0008 18.1271C13.1724 18.1271 13.344 18.0611 13.4694 17.9292L14.3142 17.0587C14.3142 17.2104 14.3142 17.3621 14.3142 17.3621C14.3142 17.3621 14.3142 18.437 14.3142 18.9778V20.7715C14.2746 21.187 14.466 21.4376 14.7234 21.5497C14.8422 21.609 14.9676 21.6024 15.0534 21.5958C15.0534 21.5958 15.4824 21.5826 15.72 21.5563C15.8454 21.5431 16.1028 21.5101 16.2216 21.4837C16.3008 21.4705 16.611 21.4046 16.6572 21.3914C16.7364 21.3716 16.9476 21.3123 17.1192 21.2595C17.1588 21.2463 17.2842 21.2001 17.2842 21.2001L17.3766 21.1672C17.3766 21.1672 17.5284 21.1078 17.5812 21.088C17.8848 20.9561 18.3402 20.7253 18.7362 20.455C19.086 20.2175 19.4226 19.934 19.713 19.6372C20.241 19.1031 20.6106 18.5161 20.7426 18.2787C20.8878 18.0413 21.033 17.738 21.1254 17.494C21.1914 17.3225 21.2706 17.1379 21.3168 16.94C21.363 16.8081 21.4026 16.6301 21.4356 16.4916C21.5808 15.8123 21.627 15.1397 21.5808 14.4539V14.4275Z" fill="url(#paint0_linear_3349_43913)"/><path d="M31.901 19.143C29.327 19.143 27.624 17.271 27.624 14.437C27.624 11.681 29.353 9.757 31.927 9.757C33.968 9.757 35.437 10.953 35.931 12.903H34.397C33.981 11.681 33.136 11.096 31.914 11.096C30.185 11.096 29.093 12.396 29.093 14.45C29.093 16.504 30.185 17.804 31.914 17.804C33.162 17.804 34.007 17.18 34.41 15.893H35.918C35.437 17.908 33.955 19.143 31.901 19.143ZM38.8794 19.143C37.5274 19.143 36.7474 18.506 36.7474 17.323C36.7474 16.01 37.9044 15.568 39.2044 15.347L40.8554 15.061V14.84C40.8554 13.917 40.4134 13.605 39.6074 13.605C38.8144 13.605 38.3984 13.93 38.3204 14.58H36.9034C36.9944 13.176 38.1644 12.461 39.6594 12.461C41.4014 12.461 42.2724 13.215 42.2724 15.113V19H40.9204V18.129C40.3874 18.883 39.7764 19.143 38.8794 19.143ZM39.2564 18.012C40.1014 18.012 40.8554 17.44 40.8554 16.569V16.101L39.5944 16.309C38.7104 16.465 38.1514 16.608 38.1514 17.245C38.1514 17.752 38.4894 18.012 39.2564 18.012ZM45.2913 19H43.8873V12.604H45.2263V13.631C45.5903 12.864 46.1883 12.539 46.8643 12.539C47.0073 12.539 47.1893 12.552 47.3323 12.591V13.917C47.0983 13.878 46.9813 13.865 46.7863 13.865C45.7983 13.865 45.2913 14.541 45.2913 15.919V19ZM51.5652 19.143C50.7462 19.143 50.1742 18.87 49.6412 18.22V19H48.3022V9.9H49.7062V13.371C50.2262 12.734 50.7982 12.461 51.5782 12.461C53.3072 12.461 54.4382 13.774 54.4382 15.802C54.4382 17.83 53.3072 19.143 51.5652 19.143ZM51.3572 17.908C52.4102 17.908 53.0342 17.167 53.0342 15.802C53.0342 14.424 52.4102 13.696 51.3572 13.696C50.2912 13.696 49.6802 14.424 49.6802 15.802C49.6802 17.167 50.2912 17.908 51.3572 17.908ZM58.3529 19.143C56.4809 19.143 55.2589 17.83 55.2589 15.802C55.2589 13.774 56.4809 12.461 58.3529 12.461C60.2249 12.461 61.4339 13.774 61.4339 15.802C61.4339 17.83 60.2249 19.143 58.3529 19.143ZM58.3529 17.908C59.4059 17.908 60.0169 17.167 60.0169 15.802C60.0169 14.424 59.4059 13.696 58.3529 13.696C57.2869 13.696 56.6759 14.424 56.6759 15.802C56.6759 17.167 57.2869 17.908 58.3529 17.908ZM64.0966 19H62.6926V12.604H64.0316V13.423C64.5126 12.76 65.0976 12.461 65.9426 12.461C67.4506 12.461 68.2046 13.293 68.2046 15.139V19H66.8006V15.256C66.8006 14.151 66.4236 13.722 65.5916 13.722C64.5646 13.722 64.0966 14.411 64.0966 15.607V19ZM74.6298 19H73.2518V9.9H74.5908L79.1668 16.504V9.9H80.5578V19H79.2188L74.6298 12.396V19ZM86.4822 17.063H87.9252C87.4572 18.61 86.2742 19.143 85.0652 19.143C83.1932 19.143 81.9322 17.83 81.9322 15.802C81.9322 13.54 83.3622 12.461 84.9742 12.461C86.7942 12.461 87.8992 13.826 87.8992 15.685V16.075H83.3752C83.4532 17.362 84.1162 17.947 85.0652 17.947C85.8452 17.947 86.2482 17.648 86.4822 17.063ZM84.9742 13.618C84.1682 13.618 83.5832 14.06 83.4142 15.1H86.4172C86.3392 14.099 85.8192 13.618 84.9742 13.618ZM91.3339 19.13C89.8389 19.13 89.0849 18.298 89.0849 16.452V12.604H90.4889V16.335C90.4889 17.453 90.8659 17.882 91.6979 17.882C92.6599 17.882 93.1279 17.193 93.1279 15.984V12.604H94.5319V19H93.1929V18.155C92.7509 18.844 92.1659 19.13 91.3339 19.13ZM98.2331 19.117C96.8941 19.117 96.4131 18.428 96.4131 17.388V13.839H95.5291V12.604H96.4131V10.771H97.8171V12.604H99.1431V13.839H97.8171V17.063C97.8171 17.583 97.9601 17.856 98.5841 17.856C98.8051 17.856 98.9481 17.83 99.1431 17.791V19C98.8441 19.065 98.5191 19.117 98.2331 19.117ZM101.631 19H100.227V12.604H101.566V13.631C101.93 12.864 102.528 12.539 103.204 12.539C103.347 12.539 103.529 12.552 103.672 12.591V13.917C103.438 13.878 103.321 13.865 103.126 13.865C102.138 13.865 101.631 14.541 101.631 15.919V19ZM106.296 19.143C104.944 19.143 104.164 18.506 104.164 17.323C104.164 16.01 105.321 15.568 106.621 15.347L108.272 15.061V14.84C108.272 13.917 107.83 13.605 107.024 13.605C106.231 13.605 105.815 13.93 105.737 14.58H104.32C104.411 13.176 105.581 12.461 107.076 12.461C108.818 12.461 109.689 13.215 109.689 15.113V19H108.337V18.129C107.804 18.883 107.193 19.143 106.296 19.143ZM106.673 18.012C107.518 18.012 108.272 17.44 108.272 16.569V16.101L107.011 16.309C106.127 16.465 105.568 16.608 105.568 17.245C105.568 17.752 105.906 18.012 106.673 18.012ZM113.007 19.091C111.785 19.091 111.304 18.545 111.304 17.466V9.9H112.708V17.154C112.708 17.648 112.864 17.856 113.306 17.856C113.397 17.856 113.488 17.856 113.592 17.843V19.013C113.423 19.052 113.215 19.091 113.007 19.091ZM121.227 19.143C118.952 19.143 117.535 18.103 117.457 16.114H118.926C118.991 17.258 119.732 17.83 121.227 17.83C122.501 17.83 123.281 17.427 123.281 16.491C123.281 15.815 122.917 15.477 121.604 15.178L120.382 14.905C118.458 14.45 117.717 13.735 117.717 12.344C117.717 10.862 118.835 9.757 121.006 9.757C123.086 9.757 124.347 10.732 124.49 12.578H123.021C122.93 11.525 122.228 11.07 121.006 11.07C119.849 11.07 119.186 11.434 119.186 12.24C119.186 12.916 119.524 13.254 120.772 13.54L121.994 13.813C123.97 14.268 124.75 15.009 124.75 16.4C124.75 18.194 123.32 19.143 121.227 19.143ZM127.425 19H126.021V9.9H127.425V13.397C127.88 12.734 128.465 12.461 129.284 12.461C130.779 12.461 131.533 13.293 131.533 15.139V19H130.129V15.256C130.129 14.151 129.752 13.722 128.92 13.722C127.893 13.722 127.425 14.411 127.425 15.607V19ZM134.596 11.434H133.127V10.056H134.596V11.434ZM134.557 19H133.153V12.604H134.557V19ZM137.652 21.795H136.248V12.604H137.587V13.41C138.107 12.747 138.718 12.461 139.537 12.461C141.266 12.461 142.384 13.774 142.384 15.802C142.384 17.83 141.227 19.143 139.537 19.143C138.731 19.143 138.12 18.87 137.652 18.285V21.795ZM139.303 17.908C140.356 17.908 140.98 17.167 140.98 15.802C140.98 14.424 140.356 13.696 139.303 13.696C138.237 13.696 137.626 14.424 137.626 15.802C137.626 17.167 138.237 17.908 139.303 17.908ZM145.037 21.795H143.633V12.604H144.972V13.41C145.492 12.747 146.103 12.461 146.922 12.461C148.651 12.461 149.769 13.774 149.769 15.802C149.769 17.83 148.612 19.143 146.922 19.143C146.116 19.143 145.505 18.87 145.037 18.285V21.795ZM146.688 17.908C147.741 17.908 148.365 17.167 148.365 15.802C148.365 14.424 147.741 13.696 146.688 13.696C145.622 13.696 145.011 14.424 145.011 15.802C145.011 17.167 145.622 17.908 146.688 17.908ZM152.462 11.434H150.993V10.056H152.462V11.434ZM152.423 19H151.019V12.604H152.423V19ZM155.518 19H154.114V12.604H155.453V13.423C155.934 12.76 156.519 12.461 157.364 12.461C158.872 12.461 159.626 13.293 159.626 15.139V19H158.222V15.256C158.222 14.151 157.845 13.722 157.013 13.722C155.986 13.722 155.518 14.411 155.518 15.607V19ZM164.001 21.938C162.272 21.938 161.089 21.119 161.011 19.611H162.48C162.597 20.456 163.091 20.742 164.001 20.742C165.119 20.742 165.535 20.157 165.535 18.87V18.181C165.015 18.805 164.456 19.065 163.676 19.065C161.947 19.065 160.816 17.778 160.816 15.763C160.816 13.761 161.947 12.461 163.676 12.461C164.495 12.461 165.067 12.76 165.6 13.371V12.604H166.939V18.818C166.939 20.781 166.042 21.938 164.001 21.938ZM163.884 17.83C164.95 17.83 165.561 17.115 165.561 15.763C165.561 14.411 164.95 13.696 163.884 13.696C162.844 13.696 162.207 14.411 162.207 15.763C162.207 17.115 162.844 17.83 163.884 17.83Z" fill="black"/><defs><linearGradient id="paint0_linear_3349_43913" x1="21.5981" y1="15" x2="8.3999" y2="15" gradientUnits="userSpaceOnUse"><stop stop-color="#9CF5F5"/><stop offset="1" stop-color="#29D6D6"/></linearGradient></defs></svg>