<svg class="rm-protected-badge" data-testid="rm-protected-badge" width="146" height="30" viewBox="0 0 146 30" fill="none" xmlns="http://www.w3.org/2000/svg"><rect width="146" height="30" rx="15" fill="#F5F5F5"/><circle cx="15" cy="15" r="9" fill="white"/><path d="M14.4942 11.2551V15.811H12.7517C12.4278 15.811 12.2227 15.4561 12.3793 15.1666L14.4942 11.2551Z" fill="url(#paint0_linear_3349_43906)"/><path d="M15.5058 18.7315V13.9959H17.3455C17.6693 13.9959 17.8744 14.3508 17.7179 14.6404L15.5058 18.7315Z" fill="url(#paint1_linear_3349_43906)"/><path d="M14.4594 8.60369C14.4968 8.63044 14.519 8.6736 14.519 8.71959V9.84594C14.519 9.90177 14.4864 9.95245 14.4356 9.97559L10.5691 11.7367C10.4639 11.7996 10.3798 11.8848 10.3217 11.982C10.2603 12.0847 10.2294 12.1986 10.2292 12.3125V17.6951C10.2294 17.809 10.2603 17.9228 10.3217 18.0256C10.3798 18.1228 10.4639 18.2079 10.5691 18.2709L14.4136 20.022C14.4644 20.0451 14.497 20.0958 14.497 20.1516V21.2803C14.497 21.3266 14.4745 21.37 14.4367 21.3967C14.3989 21.4234 14.3504 21.4301 14.3068 21.4146C14.2078 21.3793 14.1112 21.3365 14.0181 21.2862L10.0112 19.4611C9.99515 19.4538 9.97941 19.4458 9.96401 19.4372C9.65588 19.2651 9.39596 19.0153 9.21346 18.7097C9.03076 18.4038 8.933 18.0535 8.93262 17.6955V12.3114C8.933 11.9533 9.03078 11.6037 9.21346 11.2979C9.39597 10.9923 9.65588 10.7425 9.964 10.5703C9.9794 10.5617 9.99514 10.5538 10.0112 10.5465L14.0181 8.72139C14.1186 8.66709 14.2231 8.62147 14.3304 8.58478C14.3739 8.5699 14.4219 8.57695 14.4594 8.60369Z" fill="url(#paint2_linear_3349_43906)"/><path d="M15.5412 8.60369C15.5787 8.57695 15.6267 8.5699 15.6702 8.58478C15.7775 8.62147 15.882 8.66709 15.9825 8.72139L19.9894 10.5465C20.0055 10.5538 20.0212 10.5617 20.0366 10.5703C20.3447 10.7425 20.6046 10.9923 20.7871 11.2979C20.9698 11.6037 21.0676 11.9539 21.068 12.3119L21.068 17.696C21.0676 18.0541 20.9698 18.4039 20.7871 18.7097C20.6046 19.0153 20.3447 19.2651 20.0366 19.4372C20.0212 19.4458 20.0055 19.4538 19.9894 19.4611L15.9825 21.2862C15.8894 21.3365 15.7928 21.3793 15.6938 21.4146C15.6502 21.4301 15.6017 21.4234 15.5639 21.3967C15.5261 21.37 15.5036 21.3266 15.5036 21.2803V20.1516C15.5036 20.0958 15.5362 20.0451 15.587 20.022L19.4315 18.2708C19.5367 18.2079 19.6208 18.1228 19.6789 18.0256C19.7403 17.9228 19.7713 17.8089 19.7714 17.6949L19.7714 12.3128C19.7713 12.1988 19.7403 12.0848 19.6789 11.982C19.6208 11.8848 19.5367 11.7996 19.4315 11.7367L15.5651 9.97559C15.5142 9.95245 15.4816 9.90177 15.4816 9.84594V8.71959C15.4816 8.6736 15.5038 8.63044 15.5412 8.60369Z" fill="url(#paint3_linear_3349_43906)"/><path d="M29.496 19H28.027V9.9H31.485C33.513 9.9 34.748 11.031 34.748 12.916C34.748 14.788 33.513 15.932 31.485 15.932H29.496V19ZM29.496 11.252V14.58H31.472C32.642 14.58 33.266 13.995 33.266 12.916C33.266 11.837 32.642 11.252 31.472 11.252H29.496ZM37.4321 19.143C36.0801 19.143 35.3001 18.506 35.3001 17.323C35.3001 16.01 36.4571 15.568 37.7571 15.347L39.4081 15.061V14.84C39.4081 13.917 38.9661 13.605 38.1601 13.605C37.3671 13.605 36.9511 13.93 36.8731 14.58H35.4561C35.5471 13.176 36.7171 12.461 38.2121 12.461C39.9541 12.461 40.8251 13.215 40.8251 15.113V19H39.4731V18.129C38.9401 18.883 38.3291 19.143 37.4321 19.143ZM37.8091 18.012C38.6541 18.012 39.4081 17.44 39.4081 16.569V16.101L38.1471 16.309C37.2631 16.465 36.7041 16.608 36.7041 17.245C36.7041 17.752 37.0421 18.012 37.8091 18.012ZM45.066 19.143C43.207 19.143 42.011 17.83 42.011 15.802C42.011 13.774 43.207 12.461 45.066 12.461C46.535 12.461 47.653 13.293 47.952 14.736H46.509C46.275 14.034 45.768 13.696 45.066 13.696C44.026 13.696 43.402 14.437 43.402 15.802C43.402 17.167 44.026 17.908 45.066 17.908C45.781 17.908 46.314 17.57 46.535 16.764H47.965C47.679 18.259 46.574 19.143 45.066 19.143ZM50.506 19H49.102V9.9H50.506V15.204L53.171 12.604H54.939L51.832 15.529L55.004 19H53.223L50.506 16.088V19ZM57.4054 19.143C56.0534 19.143 55.2734 18.506 55.2734 17.323C55.2734 16.01 56.4304 15.568 57.7304 15.347L59.3814 15.061V14.84C59.3814 13.917 58.9394 13.605 58.1334 13.605C57.3404 13.605 56.9244 13.93 56.8464 14.58H55.4294C55.5204 13.176 56.6904 12.461 58.1854 12.461C59.9274 12.461 60.7984 13.215 60.7984 15.113V19H59.4464V18.129C58.9134 18.883 58.3024 19.143 57.4054 19.143ZM57.7824 18.012C58.6274 18.012 59.3814 17.44 59.3814 16.569V16.101L58.1204 16.309C57.2364 16.465 56.6774 16.608 56.6774 17.245C56.6774 17.752 57.0154 18.012 57.7824 18.012ZM65.1693 21.938C63.4403 21.938 62.2573 21.119 62.1793 19.611H63.6483C63.7653 20.456 64.2593 20.742 65.1693 20.742C66.2873 20.742 66.7033 20.157 66.7033 18.87V18.181C66.1833 18.805 65.6243 19.065 64.8443 19.065C63.1153 19.065 61.9843 17.778 61.9843 15.763C61.9843 13.761 63.1153 12.461 64.8443 12.461C65.6633 12.461 66.2353 12.76 66.7683 13.371V12.604H68.1073V18.818C68.1073 20.781 67.2103 21.938 65.1693 21.938ZM65.0523 17.83C66.1183 17.83 66.7293 17.115 66.7293 15.763C66.7293 14.411 66.1183 13.696 65.0523 13.696C64.0123 13.696 63.3753 14.411 63.3753 15.763C63.3753 17.115 64.0123 17.83 65.0523 17.83ZM73.9199 17.063H75.3629C74.8949 18.61 73.7119 19.143 72.5029 19.143C70.6309 19.143 69.3699 17.83 69.3699 15.802C69.3699 13.54 70.7999 12.461 72.4119 12.461C74.2319 12.461 75.3369 13.826 75.3369 15.685V16.075H70.8129C70.8909 17.362 71.5539 17.947 72.5029 17.947C73.2829 17.947 73.6859 17.648 73.9199 17.063ZM72.4119 13.618C71.6059 13.618 71.0209 14.06 70.8519 15.1H73.8549C73.7769 14.099 73.2569 13.618 72.4119 13.618ZM81.497 19H80.028V9.9H83.486C85.514 9.9 86.749 11.031 86.749 12.916C86.749 14.788 85.514 15.932 83.486 15.932H81.497V19ZM81.497 11.252V14.58H83.473C84.643 14.58 85.267 13.995 85.267 12.916C85.267 11.837 84.643 11.252 83.473 11.252H81.497ZM89.3227 19H87.9187V12.604H89.2577V13.631C89.6217 12.864 90.2197 12.539 90.8957 12.539C91.0387 12.539 91.2207 12.552 91.3637 12.591V13.917C91.1297 13.878 91.0127 13.865 90.8177 13.865C89.8297 13.865 89.3227 14.541 89.3227 15.919V19ZM94.9352 19.143C93.0632 19.143 91.8412 17.83 91.8412 15.802C91.8412 13.774 93.0632 12.461 94.9352 12.461C96.8072 12.461 98.0162 13.774 98.0162 15.802C98.0162 17.83 96.8072 19.143 94.9352 19.143ZM94.9352 17.908C95.9882 17.908 96.5992 17.167 96.5992 15.802C96.5992 14.424 95.9882 13.696 94.9352 13.696C93.8692 13.696 93.2582 14.424 93.2582 15.802C93.2582 17.167 93.8692 17.908 94.9352 17.908ZM101.277 19.117C99.9379 19.117 99.4569 18.428 99.4569 17.388V13.839H98.5729V12.604H99.4569V10.771H100.861V12.604H102.187V13.839H100.861V17.063C100.861 17.583 101.004 17.856 101.628 17.856C101.849 17.856 101.992 17.83 102.187 17.791V19C101.888 19.065 101.563 19.117 101.277 19.117ZM107.328 17.063H108.771C108.303 18.61 107.12 19.143 105.911 19.143C104.039 19.143 102.778 17.83 102.778 15.802C102.778 13.54 104.208 12.461 105.82 12.461C107.64 12.461 108.745 13.826 108.745 15.685V16.075H104.221C104.299 17.362 104.962 17.947 105.911 17.947C106.691 17.947 107.094 17.648 107.328 17.063ZM105.82 13.618C105.014 13.618 104.429 14.06 104.26 15.1H107.263C107.185 14.099 106.665 13.618 105.82 13.618ZM112.635 19.143C110.776 19.143 109.58 17.83 109.58 15.802C109.58 13.774 110.776 12.461 112.635 12.461C114.104 12.461 115.222 13.293 115.521 14.736H114.078C113.844 14.034 113.337 13.696 112.635 13.696C111.595 13.696 110.971 14.437 110.971 15.802C110.971 17.167 111.595 17.908 112.635 17.908C113.35 17.908 113.883 17.57 114.104 16.764H115.534C115.248 18.259 114.143 19.143 112.635 19.143ZM118.673 19.117C117.334 19.117 116.853 18.428 116.853 17.388V13.839H115.969V12.604H116.853V10.771H118.257V12.604H119.583V13.839H118.257V17.063C118.257 17.583 118.4 17.856 119.024 17.856C119.245 17.856 119.388 17.83 119.583 17.791V19C119.284 19.065 118.959 19.117 118.673 19.117ZM122.11 11.434H120.641V10.056H122.11V11.434ZM122.071 19H120.667V12.604H122.071V19ZM126.427 19.143C124.555 19.143 123.333 17.83 123.333 15.802C123.333 13.774 124.555 12.461 126.427 12.461C128.299 12.461 129.508 13.774 129.508 15.802C129.508 17.83 128.299 19.143 126.427 19.143ZM126.427 17.908C127.48 17.908 128.091 17.167 128.091 15.802C128.091 14.424 127.48 13.696 126.427 13.696C125.361 13.696 124.75 14.424 124.75 15.802C124.75 17.167 125.361 17.908 126.427 17.908ZM132.17 19H130.766V12.604H132.105V13.423C132.586 12.76 133.171 12.461 134.016 12.461C135.524 12.461 136.278 13.293 136.278 15.139V19H134.874V15.256C134.874 14.151 134.497 13.722 133.665 13.722C132.638 13.722 132.17 14.411 132.17 15.607V19Z" fill="black"/><defs><linearGradient id="paint0_linear_3349_43906" x1="17.7715" y1="14.9933" x2="12.3257" y2="14.9933" gradientUnits="userSpaceOnUse"><stop stop-color="#70E1E1"/><stop offset="1" stop-color="#28D9D9"/></linearGradient><linearGradient id="paint1_linear_3349_43906" x1="17.7715" y1="14.9933" x2="12.3257" y2="14.9933" gradientUnits="userSpaceOnUse"><stop stop-color="#70E1E1"/><stop offset="1" stop-color="#28D9D9"/></linearGradient><linearGradient id="paint2_linear_3349_43906" x1="21.068" y1="15" x2="8.93262" y2="15" gradientUnits="userSpaceOnUse"><stop stop-color="#70E1E1"/><stop offset="1" stop-color="#28D9D9"/></linearGradient><linearGradient id="paint3_linear_3349_43906" x1="21.068" y1="15" x2="8.93262" y2="15" gradientUnits="userSpaceOnUse"><stop stop-color="#70E1E1"/><stop offset="1" stop-color="#28D9D9"/></linearGradient></defs></svg>