<svg class="rm-protected-badge-small rm-dark" width="131" height="24" viewBox="0 0 131 24" fill="none" xmlns="http://www.w3.org/2000/svg"><rect width="131" height="24" rx="12" fill="#212122"/><circle cx="12" cy="12" r="8" fill="black"/><path d="M11.5501 8.6712V12.7209H10.0012C9.71334 12.7209 9.53105 12.4054 9.67021 12.148L11.5501 8.6712Z" fill="url(#paint0_linear_3349_43311)"/><path d="M12.4493 15.3169V11.1074H14.0846C14.3725 11.1074 14.5548 11.4229 14.4156 11.6803L12.4493 15.3169Z" fill="url(#paint1_linear_3349_43311)"/><path d="M11.5191 6.31439C11.5524 6.33817 11.5721 6.37653 11.5721 6.41741V7.41861C11.5721 7.46824 11.5431 7.51329 11.4979 7.53386L8.06108 9.0993C7.96759 9.15524 7.89279 9.23093 7.84118 9.31734C7.78663 9.40866 7.7591 9.50986 7.75894 9.6111V14.3956C7.7591 14.4969 7.78663 14.5981 7.84118 14.6894C7.89279 14.7758 7.96759 14.8515 8.06109 14.9074L11.4784 16.464C11.5236 16.4845 11.5526 16.5296 11.5526 16.5792V17.5825C11.5526 17.6237 11.5326 17.6622 11.499 17.686C11.4653 17.7097 11.4223 17.7156 11.3835 17.7018C11.2955 17.6705 11.2096 17.6324 11.1268 17.5877L7.56517 15.9654C7.55092 15.9589 7.53693 15.9518 7.52323 15.9442C7.24934 15.7912 7.01831 15.5691 6.85608 15.2975C6.69368 15.0256 6.60678 14.7142 6.60645 14.396V9.6101C6.60678 9.29184 6.6937 8.98105 6.85608 8.7092C7.01831 8.4376 7.24934 8.21556 7.52323 8.06253C7.53692 8.05488 7.55091 8.0478 7.56517 8.04131L11.1268 6.41902C11.2162 6.37074 11.3091 6.3302 11.4045 6.29758C11.4432 6.28436 11.4858 6.29062 11.5191 6.31439Z" fill="url(#paint2_linear_3349_43311)"/><path d="M12.4808 6.31439C12.514 6.29062 12.5567 6.28436 12.5954 6.29758C12.6908 6.3302 12.7837 6.37074 12.873 6.41902L16.4347 8.04131C16.449 8.0478 16.463 8.05488 16.4767 8.06253C16.7505 8.21556 16.9816 8.4376 17.1438 8.7092C17.3062 8.98109 17.3931 9.29238 17.3934 9.6106L17.3934 14.3965C17.3931 14.7147 17.3062 15.0257 17.1438 15.2975C16.9816 15.5691 16.7506 15.7912 16.4767 15.9442C16.463 15.9518 16.449 15.9589 16.4347 15.9654L12.873 17.5877C12.7903 17.6324 12.7044 17.6705 12.6164 17.7018C12.5776 17.7156 12.5345 17.7097 12.5009 17.686C12.4673 17.6622 12.4473 17.6237 12.4473 17.5825V16.5792C12.4473 16.5296 12.4763 16.4845 12.5215 16.464L15.9388 14.9074C16.0323 14.8515 16.1071 14.7758 16.1587 14.6894C16.2133 14.598 16.2408 14.4968 16.2409 14.3955L16.2409 9.61136C16.2408 9.51008 16.2133 9.4087 16.1587 9.31734C16.1071 9.23093 16.0323 9.15524 15.9388 9.0993L12.5019 7.53386C12.4568 7.51329 12.4278 7.46824 12.4278 7.41861V6.41741C12.4278 6.37653 12.4475 6.33817 12.4808 6.31439Z" fill="url(#paint3_linear_3349_43311)"/><path d="M25.304 16H23.948V7.6H27.14C29.012 7.6 30.152 8.644 30.152 10.384C30.152 12.112 29.012 13.168 27.14 13.168H25.304V16ZM25.304 8.848V11.92H27.128C28.208 11.92 28.784 11.38 28.784 10.384C28.784 9.388 28.208 8.848 27.128 8.848H25.304ZM32.6296 16.132C31.3816 16.132 30.6616 15.544 30.6616 14.452C30.6616 13.24 31.7296 12.832 32.9296 12.628L34.4536 12.364V12.16C34.4536 11.308 34.0456 11.02 33.3016 11.02C32.5696 11.02 32.1856 11.32 32.1136 11.92H30.8056C30.8896 10.624 31.9696 9.964 33.3496 9.964C34.9576 9.964 35.7616 10.66 35.7616 12.412V16H34.5136V15.196C34.0216 15.892 33.4576 16.132 32.6296 16.132ZM32.9776 15.088C33.7576 15.088 34.4536 14.56 34.4536 13.756V13.324L33.2896 13.516C32.4736 13.66 31.9576 13.792 31.9576 14.38C31.9576 14.848 32.2696 15.088 32.9776 15.088ZM39.6763 16.132C37.9603 16.132 36.8563 14.92 36.8563 13.048C36.8563 11.176 37.9603 9.964 39.6763 9.964C41.0323 9.964 42.0643 10.732 42.3403 12.064H41.0083C40.7923 11.416 40.3243 11.104 39.6763 11.104C38.7163 11.104 38.1403 11.788 38.1403 13.048C38.1403 14.308 38.7163 14.992 39.6763 14.992C40.3363 14.992 40.8283 14.68 41.0323 13.936H42.3523C42.0883 15.316 41.0683 16.132 39.6763 16.132ZM44.6979 16H43.4019V7.6H44.6979V12.496L47.1579 10.096H48.7899L45.9219 12.796L48.8499 16H47.2059L44.6979 13.312V16ZM51.0665 16.132C49.8185 16.132 49.0985 15.544 49.0985 14.452C49.0985 13.24 50.1665 12.832 51.3665 12.628L52.8905 12.364V12.16C52.8905 11.308 52.4825 11.02 51.7385 11.02C51.0065 11.02 50.6225 11.32 50.5505 11.92H49.2425C49.3265 10.624 50.4065 9.964 51.7865 9.964C53.3945 9.964 54.1985 10.66 54.1985 12.412V16H52.9505V15.196C52.4585 15.892 51.8945 16.132 51.0665 16.132ZM51.4145 15.088C52.1945 15.088 52.8905 14.56 52.8905 13.756V13.324L51.7265 13.516C50.9105 13.66 50.3945 13.792 50.3945 14.38C50.3945 14.848 50.7065 15.088 51.4145 15.088ZM58.2332 18.712C56.6372 18.712 55.5452 17.956 55.4732 16.564H56.8292C56.9372 17.344 57.3932 17.608 58.2332 17.608C59.2652 17.608 59.6492 17.068 59.6492 15.88V15.244C59.1692 15.82 58.6532 16.06 57.9332 16.06C56.3372 16.06 55.2932 14.872 55.2932 13.012C55.2932 11.164 56.3372 9.964 57.9332 9.964C58.6892 9.964 59.2172 10.24 59.7092 10.804V10.096H60.9452V15.832C60.9452 17.644 60.1172 18.712 58.2332 18.712ZM58.1252 14.92C59.1092 14.92 59.6732 14.26 59.6732 13.012C59.6732 11.764 59.1092 11.104 58.1252 11.104C57.1652 11.104 56.5772 11.764 56.5772 13.012C56.5772 14.26 57.1652 14.92 58.1252 14.92ZM66.3107 14.212H67.6427C67.2107 15.64 66.1187 16.132 65.0027 16.132C63.2747 16.132 62.1107 14.92 62.1107 13.048C62.1107 10.96 63.4307 9.964 64.9187 9.964C66.5987 9.964 67.6187 11.224 67.6187 12.94V13.3H63.4427C63.5147 14.488 64.1267 15.028 65.0027 15.028C65.7227 15.028 66.0947 14.752 66.3107 14.212ZM64.9187 11.032C64.1747 11.032 63.6347 11.44 63.4787 12.4H66.2507C66.1787 11.476 65.6987 11.032 64.9187 11.032ZM73.3049 16H71.9489V7.6H75.1409C77.0129 7.6 78.1529 8.644 78.1529 10.384C78.1529 12.112 77.0129 13.168 75.1409 13.168H73.3049V16ZM73.3049 8.848V11.92H75.1289C76.2089 11.92 76.7849 11.38 76.7849 10.384C76.7849 9.388 76.2089 8.848 75.1289 8.848H73.3049ZM80.5287 16H79.2327V10.096H80.4687V11.044C80.8047 10.336 81.3567 10.036 81.9807 10.036C82.1127 10.036 82.2807 10.048 82.4127 10.084V11.308C82.1967 11.272 82.0887 11.26 81.9087 11.26C80.9967 11.26 80.5287 11.884 80.5287 13.156V16ZM85.7094 16.132C83.9814 16.132 82.8534 14.92 82.8534 13.048C82.8534 11.176 83.9814 9.964 85.7094 9.964C87.4374 9.964 88.5534 11.176 88.5534 13.048C88.5534 14.92 87.4374 16.132 85.7094 16.132ZM85.7094 14.992C86.6814 14.992 87.2454 14.308 87.2454 13.048C87.2454 11.776 86.6814 11.104 85.7094 11.104C84.7254 11.104 84.1614 11.776 84.1614 13.048C84.1614 14.308 84.7254 14.992 85.7094 14.992ZM91.5633 16.108C90.3273 16.108 89.8833 15.472 89.8833 14.512V11.236H89.0673V10.096H89.8833V8.404H91.1793V10.096H92.4033V11.236H91.1793V14.212C91.1793 14.692 91.3113 14.944 91.8873 14.944C92.0913 14.944 92.2233 14.92 92.4033 14.884V16C92.1273 16.06 91.8273 16.108 91.5633 16.108ZM97.1493 14.212H98.4813C98.0493 15.64 96.9573 16.132 95.8413 16.132C94.1133 16.132 92.9493 14.92 92.9493 13.048C92.9493 10.96 94.2693 9.964 95.7573 9.964C97.4373 9.964 98.4573 11.224 98.4573 12.94V13.3H94.2813C94.3533 14.488 94.9653 15.028 95.8413 15.028C96.5613 15.028 96.9333 14.752 97.1493 14.212ZM95.7573 11.032C95.0133 11.032 94.4733 11.44 94.3173 12.4H97.0893C97.0173 11.476 96.5373 11.032 95.7573 11.032ZM102.048 16.132C100.332 16.132 99.2278 14.92 99.2278 13.048C99.2278 11.176 100.332 9.964 102.048 9.964C103.404 9.964 104.436 10.732 104.712 12.064H103.38C103.164 11.416 102.696 11.104 102.048 11.104C101.088 11.104 100.512 11.788 100.512 13.048C100.512 14.308 101.088 14.992 102.048 14.992C102.708 14.992 103.2 14.68 103.404 13.936H104.724C104.46 15.316 103.44 16.132 102.048 16.132ZM107.621 16.108C106.385 16.108 105.941 15.472 105.941 14.512V11.236H105.125V10.096H105.941V8.404H107.237V10.096H108.461V11.236H107.237V14.212C107.237 14.692 107.369 14.944 107.945 14.944C108.149 14.944 108.281 14.92 108.461 14.884V16C108.185 16.06 107.885 16.108 107.621 16.108ZM110.794 9.016H109.438V7.744H110.794V9.016ZM110.758 16H109.462V10.096H110.758V16ZM114.778 16.132C113.05 16.132 111.922 14.92 111.922 13.048C111.922 11.176 113.05 9.964 114.778 9.964C116.506 9.964 117.622 11.176 117.622 13.048C117.622 14.92 116.506 16.132 114.778 16.132ZM114.778 14.992C115.75 14.992 116.314 14.308 116.314 13.048C116.314 11.776 115.75 11.104 114.778 11.104C113.794 11.104 113.23 11.776 113.23 13.048C113.23 14.308 113.794 14.992 114.778 14.992ZM120.08 16H118.784V10.096H120.02V10.852C120.464 10.24 121.004 9.964 121.784 9.964C123.176 9.964 123.872 10.732 123.872 12.436V16H122.576V12.544C122.576 11.524 122.228 11.128 121.46 11.128C120.512 11.128 120.08 11.764 120.08 12.868V16Z" fill="white"/><defs><linearGradient id="paint0_linear_3349_43311" x1="14.4633" y1="11.9941" x2="9.62256" y2="11.9941" gradientUnits="userSpaceOnUse"><stop stop-color="#70E1E1"/><stop offset="1" stop-color="#28D9D9"/></linearGradient><linearGradient id="paint1_linear_3349_43311" x1="14.4633" y1="11.9941" x2="9.62256" y2="11.9941" gradientUnits="userSpaceOnUse"><stop stop-color="#70E1E1"/><stop offset="1" stop-color="#28D9D9"/></linearGradient><linearGradient id="paint2_linear_3349_43311" x1="17.3934" y1="12" x2="6.60645" y2="12" gradientUnits="userSpaceOnUse"><stop stop-color="#70E1E1"/><stop offset="1" stop-color="#28D9D9"/></linearGradient><linearGradient id="paint3_linear_3349_43311" x1="17.3934" y1="12" x2="6.60645" y2="12" gradientUnits="userSpaceOnUse"><stop stop-color="#70E1E1"/><stop offset="1" stop-color="#28D9D9"/></linearGradient></defs></svg>