<svg class="rm-carbon-neutral-badge-x-small rm-dark" width="135" height="24" viewBox="0 0 135 24" fill="none" xmlns="http://www.w3.org/2000/svg"><rect width="135" height="24" rx="12" fill="#212122"/><circle cx="12" cy="12" r="8" fill="black"/><path d="M13.7313 12.1242C13.4145 12.1242 13.2267 11.8546 13.0273 11.6435C12.8806 11.4853 12.7339 11.327 12.5873 11.1687L11.9771 10.5063L11.3905 11.1746L10.6395 11.9483C10.5222 12.0656 10.3755 12.1242 10.223 12.1242C10.0705 12.1242 9.92381 12.0714 9.80648 11.9542C9.57181 11.7256 9.57181 11.3563 9.80061 11.1218L11.9771 8.89431L14.1595 11.1218C14.3883 11.3563 14.3825 11.7256 14.1537 11.9542C14.0363 12.0656 13.8897 12.1242 13.7371 12.1242H13.7313ZM17.8497 11.4911C17.8027 11.0808 17.7617 10.6998 17.6033 10.2132C17.3275 9.36912 16.8406 8.57777 16.3302 8.02675C16.1307 7.81572 15.9137 7.61056 15.6849 7.42884C15.5441 7.31746 15.3974 7.20609 15.2507 7.10643C15.0043 6.9423 14.7462 6.80162 14.4763 6.67265C14.271 6.57886 14.0657 6.49094 13.8545 6.42059C13.6022 6.33853 13.3441 6.27405 13.0859 6.22715C12.7163 6.16853 12.3467 6.13336 11.9713 6.13336C11.6017 6.13336 11.2321 6.17439 10.8683 6.2506C10.6982 6.28577 10.4929 6.33267 10.3227 6.37956C9.99421 6.47921 9.70674 6.59059 9.39581 6.743C9.13768 6.87196 8.88541 7.03023 8.65074 7.19436C8.41608 7.35849 8.19314 7.53435 7.98194 7.72779C7.77074 7.92124 7.57714 8.13226 7.40114 8.35501C7.22514 8.57777 7.06088 8.81224 6.91421 9.0643C6.82621 9.21085 6.67954 9.50981 6.56221 9.77945C6.49181 9.94358 6.43314 10.1253 6.41554 10.1722C6.35688 10.4008 6.28648 10.5884 6.23954 10.8522C6.18674 11.2391 6.11048 11.7021 6.13981 12.1418C6.17501 13.5135 6.64434 14.721 7.51261 15.7644C7.68274 15.9872 8.03474 16.3389 8.41021 16.6261C8.48061 16.6906 9.06141 17.0951 9.43688 17.2651C9.58941 17.3471 10.0059 17.5054 10.0294 17.5171C10.0998 17.5406 10.1878 17.5582 10.3345 17.5289C10.4283 17.5113 10.5515 17.4409 10.6219 17.3706C10.6923 17.2944 10.7217 17.2358 10.7451 17.1889C10.8038 17.0658 10.8214 16.8254 10.7217 16.673C10.6454 16.5206 10.4929 16.4268 10.4049 16.4034C9.51314 16.0751 8.79154 15.5182 8.22248 14.7621C7.40114 13.6542 7.11368 12.218 7.47154 10.7936C7.49501 10.6587 7.67688 10.1312 7.78248 9.96117C8.10514 9.24016 8.92648 8.24364 10.0763 7.72193C11.3905 7.13574 12.9275 7.15919 14.2945 7.90365C15.6027 8.63052 16.5179 9.99048 16.6705 11.497C16.7291 11.9894 16.6881 12.4935 16.6059 12.9156C16.471 13.6776 16.0897 14.4221 15.6262 14.9731C15.1569 15.5593 14.4529 16.0751 13.7723 16.3389C13.6726 16.3858 13.4086 16.4796 13.2033 16.5265C13.0918 16.5558 12.9569 16.591 12.863 16.6027C12.7691 16.6203 12.7105 16.6261 12.5931 16.6554V13.8242C12.7398 13.9824 12.8865 14.1407 13.0331 14.299C13.2267 14.51 13.4145 14.7796 13.7371 14.7796C13.8897 14.7796 14.0363 14.7269 14.1537 14.6096C14.3883 14.381 14.3883 14.0117 14.1595 13.7773L11.9771 11.5497L9.80061 13.7773C9.57181 14.0117 9.57768 14.381 9.80648 14.6096C9.92381 14.721 10.0705 14.7796 10.223 14.7796C10.3755 14.7796 10.5281 14.721 10.6395 14.6038L11.3905 13.83C11.3905 13.9648 11.3905 14.0997 11.3905 14.0997C11.3905 14.0997 11.3905 15.0551 11.3905 15.5358V17.1303C11.3553 17.4995 11.5254 17.7223 11.7542 17.822C11.8598 17.8747 11.9713 17.8688 12.0475 17.863C12.0475 17.863 12.4289 17.8513 12.6401 17.8278C12.7515 17.8161 12.9803 17.7868 13.0859 17.7633C13.1563 17.7516 13.4321 17.693 13.4731 17.6813C13.5435 17.6637 13.7313 17.6109 13.8838 17.564C13.919 17.5523 14.0305 17.5113 14.0305 17.5113L14.1126 17.482C14.1126 17.482 14.2475 17.4292 14.2945 17.4116C14.5643 17.2944 14.9691 17.0892 15.3211 16.8489C15.6321 16.6379 15.9313 16.3858 16.1894 16.122C16.6587 15.6472 16.9873 15.1255 17.1046 14.9145C17.2337 14.7034 17.3627 14.4338 17.4449 14.2169C17.5035 14.0645 17.5739 13.9004 17.615 13.7245C17.6561 13.6073 17.6913 13.449 17.7206 13.3259C17.8497 12.7221 17.8907 12.1242 17.8497 11.5146V11.4911Z" fill="url(#paint0_linear_3349_43383)"/><path d="M27.147 16.121C24.969 16.121 23.528 14.537 23.528 12.139C23.528 9.807 24.991 8.179 27.169 8.179C28.896 8.179 30.139 9.191 30.557 10.841H29.259C28.907 9.807 28.192 9.312 27.158 9.312C25.695 9.312 24.771 10.412 24.771 12.15C24.771 13.888 25.695 14.988 27.158 14.988C28.214 14.988 28.929 14.46 29.27 13.371H30.546C30.139 15.076 28.885 16.121 27.147 16.121ZM34.9553 16.121C32.7553 16.121 31.2813 14.526 31.2813 12.139C31.2813 9.807 32.7663 8.179 34.9663 8.179C37.1553 8.179 38.6293 9.774 38.6293 12.139C38.6293 14.493 37.1553 16.121 34.9553 16.121ZM34.9553 14.988C36.4623 14.988 37.3863 13.888 37.3863 12.15C37.3863 10.412 36.4623 9.312 34.9553 9.312C33.4593 9.312 32.5243 10.412 32.5243 12.15C32.5243 13.888 33.4593 14.988 34.9553 14.988ZM44.4117 16H39.2527V14.966C41.8707 13.052 43.0367 11.93 43.0367 10.599C43.0367 9.807 42.5857 9.301 41.8157 9.301C41.0567 9.301 40.6057 9.785 40.5177 10.599H39.2747C39.3627 9.125 40.3747 8.179 41.8377 8.179C43.4547 8.179 44.3017 9.18 44.3017 10.478C44.3017 12.216 42.9267 13.404 41.0017 14.867H44.4117V16ZM49.4846 16H48.3186V8.3H49.4516L53.3236 13.888V8.3H54.5006V16H53.3676L49.4846 10.412V16ZM59.5136 14.361H60.7346C60.3386 15.67 59.3376 16.121 58.3146 16.121C56.7306 16.121 55.6636 15.01 55.6636 13.294C55.6636 11.38 56.8736 10.467 58.2376 10.467C59.7776 10.467 60.7126 11.622 60.7126 13.195V13.525H56.8846C56.9506 14.614 57.5116 15.109 58.3146 15.109C58.9746 15.109 59.3156 14.856 59.5136 14.361ZM58.2376 11.446C57.5556 11.446 57.0606 11.82 56.9176 12.7H59.4586C59.3926 11.853 58.9526 11.446 58.2376 11.446ZM63.6189 16.11C62.3539 16.11 61.7159 15.406 61.7159 13.844V10.588H62.9039V13.745C62.9039 14.691 63.2229 15.054 63.9269 15.054C64.7409 15.054 65.1369 14.471 65.1369 13.448V10.588H66.3249V16H65.1919V15.285C64.8179 15.868 64.3229 16.11 63.6189 16.11ZM69.4567 16.099C68.3237 16.099 67.9167 15.516 67.9167 14.636V11.633H67.1687V10.588H67.9167V9.037H69.1047V10.588H70.2267V11.633H69.1047V14.361C69.1047 14.801 69.2257 15.032 69.7537 15.032C69.9407 15.032 70.0617 15.01 70.2267 14.977V16C69.9737 16.055 69.6987 16.099 69.4567 16.099ZM72.3319 16H71.1439V10.588H72.2769V11.457C72.5849 10.808 73.0909 10.533 73.6629 10.533C73.7839 10.533 73.9379 10.544 74.0589 10.577V11.699C73.8609 11.666 73.7619 11.655 73.5969 11.655C72.7609 11.655 72.3319 12.227 72.3319 13.393V16ZM76.2792 16.121C75.1352 16.121 74.4752 15.582 74.4752 14.581C74.4752 13.47 75.4542 13.096 76.5542 12.909L77.9512 12.667V12.48C77.9512 11.699 77.5772 11.435 76.8952 11.435C76.2242 11.435 75.8722 11.71 75.8062 12.26H74.6072C74.6842 11.072 75.6742 10.467 76.9392 10.467C78.4132 10.467 79.1502 11.105 79.1502 12.711V16H78.0062V15.263C77.5552 15.901 77.0382 16.121 76.2792 16.121ZM76.5982 15.164C77.3132 15.164 77.9512 14.68 77.9512 13.943V13.547L76.8842 13.723C76.1362 13.855 75.6632 13.976 75.6632 14.515C75.6632 14.944 75.9492 15.164 76.5982 15.164ZM81.9577 16.077C80.9237 16.077 80.5167 15.615 80.5167 14.702V8.3H81.7047V14.438C81.7047 14.856 81.8367 15.032 82.2107 15.032C82.2877 15.032 82.3647 15.032 82.4527 15.021V16.011C82.3097 16.044 82.1337 16.077 81.9577 16.077ZM88.9132 16.121C86.9882 16.121 85.7892 15.241 85.7232 13.558H86.9662C87.0212 14.526 87.6482 15.01 88.9132 15.01C89.9912 15.01 90.6512 14.669 90.6512 13.877C90.6512 13.305 90.3432 13.019 89.2322 12.766L88.1982 12.535C86.5702 12.15 85.9432 11.545 85.9432 10.368C85.9432 9.114 86.8892 8.179 88.7262 8.179C90.4862 8.179 91.5532 9.004 91.6742 10.566H90.4312C90.3542 9.675 89.7602 9.29 88.7262 9.29C87.7472 9.29 87.1862 9.598 87.1862 10.28C87.1862 10.852 87.4722 11.138 88.5282 11.38L89.5622 11.611C91.2342 11.996 91.8942 12.623 91.8942 13.8C91.8942 15.318 90.6842 16.121 88.9132 16.121ZM94.1579 16H92.9699V8.3H94.1579V11.259C94.5429 10.698 95.0379 10.467 95.7309 10.467C96.9959 10.467 97.6339 11.171 97.6339 12.733V16H96.4459V12.832C96.4459 11.897 96.1269 11.534 95.4229 11.534C94.5539 11.534 94.1579 12.117 94.1579 13.129V16ZM100.225 9.598H98.9824V8.432H100.225V9.598ZM100.192 16H99.0044V10.588H100.192V16ZM102.811 18.365H101.623V10.588H102.756V11.27C103.196 10.709 103.713 10.467 104.406 10.467C105.869 10.467 106.815 11.578 106.815 13.294C106.815 15.01 105.836 16.121 104.406 16.121C103.724 16.121 103.207 15.89 102.811 15.395V18.365ZM104.208 15.076C105.099 15.076 105.627 14.449 105.627 13.294C105.627 12.128 105.099 11.512 104.208 11.512C103.306 11.512 102.789 12.128 102.789 13.294C102.789 14.449 103.306 15.076 104.208 15.076ZM109.06 18.365H107.872V10.588H109.005V11.27C109.445 10.709 109.962 10.467 110.655 10.467C112.118 10.467 113.064 11.578 113.064 13.294C113.064 15.01 112.085 16.121 110.655 16.121C109.973 16.121 109.456 15.89 109.06 15.395V18.365ZM110.457 15.076C111.348 15.076 111.876 14.449 111.876 13.294C111.876 12.128 111.348 11.512 110.457 11.512C109.555 11.512 109.038 12.128 109.038 13.294C109.038 14.449 109.555 15.076 110.457 15.076ZM115.343 9.598H114.1V8.432H115.343V9.598ZM115.31 16H114.122V10.588H115.31V16ZM117.928 16H116.74V10.588H117.873V11.281C118.28 10.72 118.775 10.467 119.49 10.467C120.766 10.467 121.404 11.171 121.404 12.733V16H120.216V12.832C120.216 11.897 119.897 11.534 119.193 11.534C118.324 11.534 117.928 12.117 117.928 13.129V16ZM125.107 18.486C123.644 18.486 122.643 17.793 122.577 16.517H123.82C123.919 17.232 124.337 17.474 125.107 17.474C126.053 17.474 126.405 16.979 126.405 15.89V15.307C125.965 15.835 125.492 16.055 124.832 16.055C123.369 16.055 122.412 14.966 122.412 13.261C122.412 11.567 123.369 10.467 124.832 10.467C125.525 10.467 126.009 10.72 126.46 11.237V10.588H127.593V15.846C127.593 17.507 126.834 18.486 125.107 18.486ZM125.008 15.01C125.91 15.01 126.427 14.405 126.427 13.261C126.427 12.117 125.91 11.512 125.008 11.512C124.128 11.512 123.589 12.117 123.589 13.261C123.589 14.405 124.128 15.01 125.008 15.01Z" fill="white"/><defs><linearGradient id="paint0_linear_3349_43383" x1="17.865" y1="12" x2="6.1333" y2="12" gradientUnits="userSpaceOnUse"><stop stop-color="#9CF5F5"/><stop offset="1" stop-color="#29D6D6"/></linearGradient></defs></svg>