<svg class="sticker dark" fill="none" height="26" viewBox="0 0 26 26" width="26" xmlns="http://www.w3.org/2000/svg"><circle cx="13" cy="13" fill="#000" r="13"/><path d="m15.9511 13.2117c-.54 0-.86-.4597-1.2-.8194-.25-.2697-.5-.5395-.75-.8093l-1.04-1.1291-1 1.1391-1.28 1.3189c-.2.1998-.45.2998-.71.2998s-.51-.09-.71-.2898c-.4-.3897-.4-1.0192-.01-1.4188l3.71-3.79694 3.72 3.79694c.39.3996.38 1.0291-.01 1.4188-.2.1898-.45.2898-.71.2898zm7.02-1.0792c-.08-.6994-.15-1.3489-.42-2.17818-.47-1.43882-1.3-2.78772-2.17-3.72695-.34-.35971-.71-.70943-1.1-1.01917-.24-.18985-.49-.37969-.74-.54955-.42-.27978-.86-.51958-1.32-.7394-.35-.15987-.7-.30975-1.06-.42965-.43-.13989-.87-.2498-1.31-.32973-.63-.09992-1.26-.15987-1.9-.15987-.63 0-1.26.06994-1.88.19984-.29.05995-.64.13988-.93.21982-.56.16986-1.05.3597-1.58.61949-.44.21982-.87.4896-1.27.76937-.4.27978-.78.57953-1.14.90926s-.69.68944-.99 1.06913-.58.77936-.83 1.20901c-.15.2498-.4.75938-.6 1.21901-.12.27977-.22.58952-.25.66945-.1.38972-.22.70942-.3 1.15902-.09.6595-.22 1.4489-.17 2.1982.06 2.3381.86 4.3965 2.34 6.175.29.3797.89.9792 1.53 1.4688.12.1099 1.11.7993 1.75 1.0891.26.1399.97.4097 1.01.4297.12.0399.27.0699.52.0199.16-.0299.37-.1498.49-.2697.12-.1299.17-.2298.21-.3098.1-.2098.13-.6195-.04-.8793-.13-.2598-.39-.4196-.54-.4596-1.52-.5595-2.75-1.5088-3.72-2.7977-1.4-1.8885-1.89-4.3365-1.28-6.7645.04-.2298.35-1.12906.53-1.41883.55-1.22899 1.95-2.92761 3.91-3.81688 2.24-.99918 4.86-.95922 7.19.30975 2.23 1.23899 3.79 3.55709 4.05 6.12496.1.8394.03 1.6987-.11 2.4181-.23 1.2989-.88 2.5679-1.67 3.5071-.8.9992-2 1.8785-3.16 2.3281-.17.0799-.62.2398-.97.3197-.19.05-.42.11-.58.1299-.16.03-.26.04-.46.09v-4.8261c.25.2698.5.5396.75.8093.33.3597.65.8194 1.2.8194.26 0 .51-.09.71-.2898.4-.3897.4-1.0192.01-1.4188l-3.72-3.7969-3.71 3.7969c-.39.3996-.38 1.0291.01 1.4188.2.1899.45.2898.71.2898s.52-.0999.71-.2998l1.28-1.3189v.4596 2.448 2.7178c-.06.6295.23 1.0092.62 1.179.18.09.37.08.5.07 0 0 .65-.02 1.01-.06.19-.02.58-.0699.76-.1099.12-.02.59-.1199.66-.1399.12-.0299.44-.1199.7-.1998.06-.02.25-.0899.25-.0899l.14-.05s.23-.0899.31-.1199c.46-.1998 1.15-.5495 1.75-.9592.53-.3597 1.04-.7894 1.48-1.239.8-.8093 1.36-1.6986 1.56-2.0583.22-.3597.44-.8193.58-1.189.1-.2598.22-.5396.29-.8394.07-.1998.13-.4696.18-.6794.22-1.0292.29-2.0483.22-3.0875z" fill="#9cf5f5"/></svg>