<svg class="title-route-logo small dark" fill="none" height="18" viewBox="0 0 15 18" width="15" xmlns="http://www.w3.org/2000/svg"><g fill="#9cf5f5"><path d="m5.53592 4.74606c.99968-.99475 2.62202-.99475 3.6217 0l5.84238 5.81114-1.8558 1.8467c-.9997.9948-2.6221.9948-3.62174 0l-4.02545-4.00558c-.07054-.07019-.14594-.13554-.22377-.19605-.33323-.28802-.7078-.52521-1.11886-.69463-.35755-.14764-.72726-.24203-1.1067-.2856z"/><path d="m.197016 12.2559c.131344.3098.321064.5905.559429.8277l3.619265-3.60139c-.23837-.23961-.52052-.42839-.83185-.55667-.3089-.12828-.64213-.19605-.98022-.19605s-.67131.06535-.98265.19363c-.31133.12586-.593477.31464-.831842.55183-.235933.23719-.425652.51795-.554564.82775-.1289119.3098-.194584.6414-.194584.9778s.0681044.668.197016.9754z"/></g></svg>