<svg class="route-modal__route" width="35" height="10" viewBox="0 0 35 10" fill="none" xmlns="http://www.w3.org/2000/svg"><path fillRule="evenodd" clipRule="evenodd" d="M3.89892 0.570068C4.21533 0.570068 4.53175 0.614563 4.82918 0.72262H4.83551C5.96195 1.11671 6.60111 1.91125 6.70236 3.09988C6.79728 4.26309 6.38594 5.19747 5.35443 5.82039C5.33174 5.83406 5.30986 5.84773 5.28705 5.86199L5.28699 5.86203C5.24621 5.88752 5.20238 5.91492 5.1456 5.94751L7.39356 9.40535L5.46659 9.39899L3.39265 6.20177H1.76628V9.39899H0.0639648L0.0702932 0.576425C0.0702932 0.576425 2.69021 0.570068 3.89892 0.570068ZM1.77894 2.08923V4.65718L3.91158 4.64447C4.61971 4.64447 5.03169 4.00884 5.0127 3.33507C4.99372 2.6613 4.60579 2.09558 3.91158 2.09558L1.77894 2.08923Z" fill="#6A6A6D"/><path fillRule="evenodd" clipRule="evenodd" d="M33.1547 7.47302L34.1039 8.5091C33.6167 8.97311 33.0598 9.27822 32.4143 9.43077C30.7942 9.8185 29.2058 9.2083 28.4338 7.8989C27.1048 5.6424 28.6679 2.83291 31.2878 2.77571C33.4078 2.72485 34.8254 4.29486 34.5532 6.38609C34.5343 6.50686 34.4672 6.7379 34.4194 6.8579H29.7627C30.0204 7.94689 31.6928 8.55995 33.1547 7.47302ZM29.7627 5.48635L32.9371 5.48993C32.9055 4.72718 32.3447 4.25037 31.4967 4.19952C30.6677 4.14867 29.8703 4.71088 29.7627 5.48635Z" fill="#6A6A6D"/><path fillRule="evenodd" clipRule="evenodd" d="M14.6064 6.16362C14.6191 4.24401 13.1066 2.76935 11.1322 2.76935C9.16407 2.7757 7.68324 4.21859 7.68324 6.14455C7.67692 8.07052 9.15141 9.53247 11.1132 9.53883C13.0939 9.54518 14.5938 8.08958 14.6064 6.16362ZM11.1258 4.36478C12.1447 4.35843 12.9357 5.14025 12.9357 6.15091C12.9357 7.16156 12.132 7.94339 11.1322 7.94339C10.1323 7.94339 9.36657 7.16792 9.35392 6.15727C9.34126 5.15932 10.126 4.37114 11.1258 4.36478Z" fill="#6A6A6D"/><path d="M15.7392 2.91555H17.3719L17.4099 6.73569C17.4099 7.57409 17.9604 8.01331 18.8021 7.96246C19.4792 7.92432 19.9159 7.46031 19.9412 6.65942C19.9728 5.54706 19.9665 2.9219 19.9665 2.9219H21.6245C21.6245 2.9219 21.6562 5.52799 21.6055 6.78654C21.5296 8.42647 20.4158 9.49433 18.8147 9.53247C17.0934 9.57061 15.7392 8.41948 15.7392 6.9391V2.91555Z" fill="#6A6A6D"/><path d="M27.2535 9.39264V7.85441L26.4245 7.93069C25.7537 7.96882 25.4373 7.68915 25.4247 7.02173V4.44742H27.108V2.90284H25.4247V1.11036H23.9565L23.8749 2.13945C23.804 2.67401 23.554 2.90093 23.1338 2.9092H22.7288V4.46014H23.773C23.773 4.46014 23.7603 6.58315 23.7856 7.45396C23.8109 8.4519 24.3552 9.17652 25.2538 9.43077C25.9183 9.62146 26.5827 9.53883 27.2535 9.39264Z" fill="#6A6A6D"/></svg>