<svg class="sticker small" fill="none" height="15" viewBox="0 0 15 15" width="15" xmlns="http://www.w3.org/2000/svg"><circle cx="7.5" cy="7.5" fill="#fff" r="7.5"/><path d="m9.15999 7.61906c-.30375 0-.48375-.25854-.675-.46087-.14062-.15175-.28125-.3035-.42187-.45526l-.585-.6351-.5625.64072-.72.7419c-.1125.11241-.25313.16861-.39938.16861s-.28687-.05058-.39937-.16299c-.225-.2192-.225-.57328-.00563-.7981l2.08688-2.13576 2.0925 2.13576c.21937.22482.21375.5789-.00563.7981-.1125.10679-.25312.16299-.39937.16299zm3.94871-.607c-.045-.39343-.0843-.75876-.2362-1.22525-.2644-.80934-.7313-1.5681-1.2206-2.09642-.1913-.20233-.3994-.39905-.6188-.57328-.135-.10679-.2756-.21357-.4162-.30912-.2363-.15737-.4838-.29226-.74253-.41591-.19688-.08993-.39375-.17423-.59625-.24168-.24188-.07869-.48938-.14051-.73688-.18547-.35437-.05621-.70875-.08993-1.06875-.08993-.35437 0-.70875.03934-1.0575.11241-.16312.03372-.36.07868-.52312.12365-.315.09554-.59063.20233-.88875.34846-.2475.12365-.48938.2754-.71438.43277-.225.15738-.43875.32599-.64125.51146-.2025.18548-.38812.38781-.55687.60139-.16875.21357-.32625.43839-.46688.68007-.08437.14051-.225.42715-.3375.68569-.0675.15737-.12375.3316-.14062.37656-.05625.2192-.12375.39905-.16875.65197-.05063.37095-.12375.81496-.09563 1.23649.03375 1.31518.48375 2.47298 1.31625 3.47338.16313.2136.50063.5508.86063.8262.0675.0619.62437.4497.98437.6127.14625.0786.54563.2304.56813.2416.0675.0225.15187.0394.2925.0113.09-.0169.20812-.0843.27562-.1518.0675-.073.09563-.1292.11813-.1742.05625-.118.07312-.3485-.0225-.4946-.07313-.1461-.21938-.2361-.30375-.2585-.855-.3148-1.54688-.8487-2.0925-1.5738-.7875-1.06221-1.06313-2.43921-.72-3.80497.0225-.12927.19687-.63511.29812-.7981.30938-.69131 1.09688-1.64678 2.19938-2.147 1.26-.56204 2.73375-.53956 4.04437.17423 1.25441.69694 2.13191 2.00087 2.27811 3.44532.0563.47211.0169.95547-.0619 1.36014-.1293.73065-.495 1.44444-.9393 1.97278-.45.562-1.12503 1.0566-1.77753 1.3095-.09563.045-.34875.1349-.54563.1799-.10687.0281-.23625.0618-.32625.0731-.09.0168-.14625.0224-.25875.0505v-2.71462c.14063.15175.28125.3035.42188.45525.18562.20234.36562.46087.675.46087.14625 0 .28687-.0506.39937-.163.225-.21918.225-.57327.00563-.79808l-2.0925-2.13576-2.08688 2.13576c-.21937.22481-.21375.5789.00563.79808.1125.1068.25312.163.39937.163s.2925-.0562.39938-.1686l.72-.7419v.25854 1.37696 1.5288c-.03375.3541.12937.5677.34875.6632.10125.0506.20812.045.28125.0393 0 0 .36562-.0112.56812-.0337.10688-.0112.32625-.0393.4275-.0618.0675-.0112.33188-.0674.37125-.0787.0675-.0168.2475-.0674.39375-.1124.03375-.0112.14063-.0506.14063-.0506l.07875-.0281s.12937-.0506.17437-.0674c.25875-.1124.64691-.3091.98441-.5396.2981-.2023.585-.444.8325-.6969.45-.4553.765-.9555.8775-1.1578.1237-.2024.2475-.4609.3262-.66885.0563-.14613.1238-.3035.1631-.47212.0394-.1124.0732-.26416.1013-.38218.1237-.57891.1631-1.15219.1237-1.73671z" fill="#29d6d6"/></svg>