<svg class="sticker dark grey small" fill="none" height="15" viewBox="0 0 15 15" width="15" xmlns="http://www.w3.org/2000/svg"><circle cx="7.5" cy="7.5" fill="#000" r="7.5"/><path d="m9.1231 7.61642c-.297 0-.473-.2528-.66-.45064-.1375-.14838-.275-.29675-.4125-.44513l-.572-.621-.55.62649-.704.72541c-.11.10991-.2475.16487-.3905.16487s-.2805-.04946-.3905-.15937c-.22-.21433-.22-.56055-.0055-.78037l2.0405-2.08829 2.046 2.08829c.2145.21982.209.56604-.0055.78037-.11.10441-.2475.15937-.3905.15937zm3.861-.59352c-.044-.38469-.0825-.74189-.231-1.19802-.2585-.79136-.715-1.53325-1.1935-2.04983-.187-.19784-.3905-.39018-.605-.56054-.132-.10442-.2695-.20883-.407-.30225-.231-.15388-.473-.28577-.726-.40667-.1925-.08793-.385-.17036-.583-.23631-.2365-.07694-.4785-.13739-.7205-.18135-.3465-.05496-.693-.08793-1.045-.08793-.3465 0-.693.03847-1.034.10991-.1595.03297-.352.07694-.5115.1209-.308.09343-.5775.19784-.869.34072-.242.1209-.4785.26928-.6985.42316-.22.15387-.429.31874-.627.50009s-.3795.37919-.5445.58802-.319.42865-.4565.66496c-.0825.13738-.22.41766-.33.67045-.066.15387-.121.32424-.1375.3682-.055.21432-.121.39018-.165.63748-.0495.3627-.121.79685-.0935 1.20901.033 1.28595.473 2.418 1.287 3.3962.1595.2089.4895.5386.8415.8079.066.0604.6105.4396.9625.599.143.0769.5335.2253.5555.2363.066.022.1485.0385.286.011.088-.0165.2035-.0825.2695-.1484.066-.0714.0935-.1264.1155-.1704.055-.1154.0715-.3407-.022-.4836-.0715-.1428-.2145-.2308-.297-.2528-.836-.3077-1.5125-.8298-2.046-1.5387-.77-1.03866-1.0395-2.38506-.704-3.72047.022-.12639.1925-.62099.2915-.78036.3025-.67595 1.0725-1.61018 2.1505-2.09929 1.232-.54955 2.673-.52757 3.9545.17037 1.2265.68144 2.0845 1.9564 2.2275 3.36875.055.46162.0165.93423-.0605 1.32991-.1265.71442-.484 1.41235-.9185 1.92889-.44.5496-1.1 1.0332-1.738 1.2805-.0935.044-.341.1319-.5335.1758-.1045.0275-.231.0605-.319.0715-.088.0165-.143.022-.253.0494v-2.65429l.4125.44514c.1815.19784.3575.45065.66.45065.143 0 .2805-.0495.3905-.15939.22-.21432.22-.56054.0055-.78036l-2.046-2.08829-2.0405 2.08829c-.2145.21982-.209.56604.0055.78036.11.10439.2475.15939.3905.15939s.286-.055.3905-.16488l.704-.72541v.25279 1.3464 1.4948c-.033.3462.1265.555.341.6485.099.0494.2035.0439.275.0384 0 0 .3575-.011.5555-.0329.1045-.011.319-.0385.418-.0605.066-.011.3245-.0659.363-.0769.066-.0165.242-.066.385-.1099.033-.011.1375-.0495.1375-.0495l.077-.0275s.1265-.0494.1705-.0659c.253-.1099.6325-.3023.9625-.5276.2915-.1978.572-.4341.814-.6814.44-.4452.748-.9343.858-1.1321.121-.1979.242-.45065.319-.65399.055-.14288.121-.29675.1595-.46162.0385-.10991.0715-.25829.099-.37369.121-.56604.1595-1.12658.121-1.69812z" fill="#8d8d90"/></svg>