<svg class="rm-carbon-neutral-badge-small" width="144" height="24" viewBox="0 0 144 24" fill="none" xmlns="http://www.w3.org/2000/svg"><rect width="144" height="24" rx="12" fill="#F5F5F5"/><circle cx="12" cy="12" r="8" fill="white"/><path d="M13.7313 12.1242C13.4145 12.1242 13.2267 11.8545 13.0273 11.6435C12.8806 11.4852 12.7339 11.327 12.5873 11.1687L11.9771 10.5063L11.3905 11.1745L10.6395 11.9483C10.5222 12.0656 10.3755 12.1242 10.223 12.1242C10.0705 12.1242 9.92381 12.0714 9.80648 11.9542C9.57181 11.7256 9.57181 11.3563 9.80061 11.1218L11.9771 8.89428L14.1595 11.1218C14.3883 11.3563 14.3825 11.7256 14.1537 11.9542C14.0363 12.0656 13.8897 12.1242 13.7371 12.1242H13.7313ZM17.8497 11.4911C17.8027 11.0808 17.7617 10.6997 17.6033 10.2132C17.3275 9.36909 16.8406 8.57774 16.3302 8.02672C16.1307 7.81569 15.9137 7.61053 15.6849 7.42881C15.5441 7.31743 15.3974 7.20606 15.2507 7.1064C15.0043 6.94227 14.7462 6.80159 14.4763 6.67262C14.271 6.57883 14.0657 6.49091 13.8545 6.42056C13.6022 6.3385 13.3441 6.27402 13.0859 6.22712C12.7163 6.1685 12.3467 6.13333 11.9713 6.13333C11.6017 6.13333 11.2321 6.17436 10.8683 6.25057C10.6982 6.28574 10.4929 6.33264 10.3227 6.37953C9.99421 6.47918 9.70674 6.59056 9.39581 6.74297C9.13768 6.87193 8.88541 7.0302 8.65074 7.19433C8.41608 7.35846 8.19314 7.53432 7.98194 7.72776C7.77074 7.92121 7.57714 8.13223 7.40114 8.35498C7.22514 8.57774 7.06088 8.81221 6.91421 9.06427C6.82621 9.21082 6.67954 9.50977 6.56221 9.77942C6.49181 9.94355 6.43314 10.1253 6.41554 10.1722C6.35688 10.4008 6.28648 10.5884 6.23954 10.8521C6.18674 11.239 6.11048 11.7021 6.13981 12.1418C6.17501 13.5134 6.64434 14.721 7.51261 15.7644C7.68274 15.9872 8.03474 16.3389 8.41021 16.6261C8.48061 16.6906 9.06141 17.095 9.43688 17.265C9.58941 17.3471 10.0059 17.5054 10.0294 17.5171C10.0998 17.5406 10.1878 17.5581 10.3345 17.5288C10.4283 17.5112 10.5515 17.4409 10.6219 17.3706C10.6923 17.2944 10.7217 17.2357 10.7451 17.1888C10.8038 17.0657 10.8214 16.8254 10.7217 16.673C10.6454 16.5206 10.4929 16.4268 10.4049 16.4033C9.51314 16.0751 8.79154 15.5182 8.22248 14.762C7.40114 13.6541 7.11368 12.218 7.47154 10.7935C7.49501 10.6587 7.67688 10.1311 7.78248 9.96114C8.10514 9.24013 8.92648 8.24361 10.0763 7.7219C11.3905 7.13571 12.9275 7.15916 14.2945 7.90362C15.6027 8.63049 16.5179 9.99045 16.6705 11.497C16.7291 11.9894 16.6881 12.4935 16.6059 12.9155C16.471 13.6776 16.0897 14.422 15.6262 14.973C15.1569 15.5592 14.4529 16.0751 13.7723 16.3389C13.6726 16.3858 13.4086 16.4796 13.2033 16.5264C13.0918 16.5558 12.9569 16.5909 12.863 16.6027C12.7691 16.6202 12.7105 16.6261 12.5931 16.6554V13.8241C12.7398 13.9824 12.8865 14.1407 13.0331 14.2989C13.2267 14.51 13.4145 14.7796 13.7371 14.7796C13.8897 14.7796 14.0363 14.7268 14.1537 14.6096C14.3883 14.381 14.3883 14.0117 14.1595 13.7772L11.9771 11.5497L9.80061 13.7772C9.57181 14.0117 9.57768 14.381 9.80648 14.6096C9.92381 14.721 10.0705 14.7796 10.223 14.7796C10.3755 14.7796 10.5281 14.721 10.6395 14.6038L11.3905 13.83C11.3905 13.9648 11.3905 14.0996 11.3905 14.0996C11.3905 14.0996 11.3905 15.0551 11.3905 15.5358V17.1302C11.3553 17.4995 11.5254 17.7223 11.7542 17.8219C11.8598 17.8747 11.9713 17.8688 12.0475 17.863C12.0475 17.863 12.4289 17.8512 12.6401 17.8278C12.7515 17.8161 12.9803 17.7868 13.0859 17.7633C13.1563 17.7516 13.4321 17.693 13.4731 17.6812C13.5435 17.6637 13.7313 17.6109 13.8838 17.564C13.919 17.5523 14.0305 17.5112 14.0305 17.5112L14.1126 17.4819C14.1126 17.4819 14.2475 17.4292 14.2945 17.4116C14.5643 17.2944 14.9691 17.0892 15.3211 16.8489C15.6321 16.6378 15.9313 16.3858 16.1894 16.122C16.6587 15.6472 16.9873 15.1255 17.1046 14.9144C17.2337 14.7034 17.3627 14.4338 17.4449 14.2169C17.5035 14.0645 17.5739 13.9003 17.615 13.7245C17.6561 13.6072 17.6913 13.449 17.7206 13.3259C17.8497 12.7221 17.8907 12.1242 17.8497 11.5145V11.4911Z" fill="url(#paint0_linear_3349_43836)"/><path d="M27.524 16.132C25.148 16.132 23.576 14.404 23.576 11.788C23.576 9.244 25.172 7.468 27.548 7.468C29.432 7.468 30.788 8.572 31.244 10.372H29.828C29.444 9.244 28.664 8.704 27.536 8.704C25.94 8.704 24.932 9.904 24.932 11.8C24.932 13.696 25.94 14.896 27.536 14.896C28.688 14.896 29.468 14.32 29.84 13.132H31.232C30.788 14.992 29.42 16.132 27.524 16.132ZM36.0421 16.132C33.6421 16.132 32.0341 14.392 32.0341 11.788C32.0341 9.244 33.6541 7.468 36.0541 7.468C38.4421 7.468 40.0501 9.208 40.0501 11.788C40.0501 14.356 38.4421 16.132 36.0421 16.132ZM36.0421 14.896C37.6861 14.896 38.6941 13.696 38.6941 11.8C38.6941 9.904 37.6861 8.704 36.0421 8.704C34.4101 8.704 33.3901 9.904 33.3901 11.8C33.3901 13.696 34.4101 14.896 36.0421 14.896ZM46.3582 16H40.7302V14.872C43.5862 12.784 44.8582 11.56 44.8582 10.108C44.8582 9.244 44.3662 8.692 43.5262 8.692C42.6982 8.692 42.2062 9.22 42.1102 10.108H40.7542C40.8502 8.5 41.9542 7.468 43.5502 7.468C45.3142 7.468 46.2382 8.56 46.2382 9.976C46.2382 11.872 44.7382 13.168 42.6382 14.764H46.3582V16ZM51.8923 16H50.6203V7.6H51.8563L56.0803 13.696V7.6H57.3643V16H56.1283L51.8923 9.904V16ZM62.8331 14.212H64.1651C63.7331 15.64 62.6411 16.132 61.5251 16.132C59.7971 16.132 58.6331 14.92 58.6331 13.048C58.6331 10.96 59.9531 9.964 61.4411 9.964C63.1211 9.964 64.1411 11.224 64.1411 12.94V13.3H59.9651C60.0371 14.488 60.6491 15.028 61.5251 15.028C62.2451 15.028 62.6171 14.752 62.8331 14.212ZM61.4411 11.032C60.6971 11.032 60.1571 11.44 60.0011 12.4H62.7731C62.7011 11.476 62.2211 11.032 61.4411 11.032ZM67.3115 16.12C65.9315 16.12 65.2355 15.352 65.2355 13.648V10.096H66.5315V13.54C66.5315 14.572 66.8795 14.968 67.6475 14.968C68.5355 14.968 68.9675 14.332 68.9675 13.216V10.096H70.2635V16H69.0275V15.22C68.6195 15.856 68.0795 16.12 67.3115 16.12ZM73.68 16.108C72.444 16.108 72 15.472 72 14.512V11.236H71.184V10.096H72V8.404H73.296V10.096H74.52V11.236H73.296V14.212C73.296 14.692 73.428 14.944 74.004 14.944C74.208 14.944 74.34 14.92 74.52 14.884V16C74.244 16.06 73.944 16.108 73.68 16.108ZM76.8166 16H75.5206V10.096H76.7566V11.044C77.0926 10.336 77.6446 10.036 78.2686 10.036C78.4006 10.036 78.5686 10.048 78.7006 10.084V11.308C78.4846 11.272 78.3766 11.26 78.1966 11.26C77.2846 11.26 76.8166 11.884 76.8166 13.156V16ZM81.1227 16.132C79.8747 16.132 79.1547 15.544 79.1547 14.452C79.1547 13.24 80.2227 12.832 81.4227 12.628L82.9467 12.364V12.16C82.9467 11.308 82.5387 11.02 81.7947 11.02C81.0627 11.02 80.6787 11.32 80.6067 11.92H79.2987C79.3827 10.624 80.4627 9.964 81.8427 9.964C83.4507 9.964 84.2547 10.66 84.2547 12.412V16H83.0067V15.196C82.5147 15.892 81.9507 16.132 81.1227 16.132ZM81.4707 15.088C82.2507 15.088 82.9467 14.56 82.9467 13.756V13.324L81.7827 13.516C80.9667 13.66 80.4507 13.792 80.4507 14.38C80.4507 14.848 80.7627 15.088 81.4707 15.088ZM87.3175 16.084C86.1895 16.084 85.7455 15.58 85.7455 14.584V7.6H87.0415V14.296C87.0415 14.752 87.1855 14.944 87.5935 14.944C87.6775 14.944 87.7615 14.944 87.8575 14.932V16.012C87.7015 16.048 87.5095 16.084 87.3175 16.084ZM94.9053 16.132C92.8053 16.132 91.4973 15.172 91.4253 13.336H92.7813C92.8413 14.392 93.5253 14.92 94.9053 14.92C96.0813 14.92 96.8013 14.548 96.8013 13.684C96.8013 13.06 96.4653 12.748 95.2533 12.472L94.1253 12.22C92.3493 11.8 91.6653 11.14 91.6653 9.856C91.6653 8.488 92.6973 7.468 94.7013 7.468C96.6213 7.468 97.7853 8.368 97.9173 10.072H96.5613C96.4773 9.1 95.8293 8.68 94.7013 8.68C93.6333 8.68 93.0213 9.016 93.0213 9.76C93.0213 10.384 93.3333 10.696 94.4853 10.96L95.6133 11.212C97.4373 11.632 98.1573 12.316 98.1573 13.6C98.1573 15.256 96.8373 16.132 94.9053 16.132ZM100.627 16H99.3308V7.6H100.627V10.828C101.047 10.216 101.587 9.964 102.343 9.964C103.723 9.964 104.419 10.732 104.419 12.436V16H103.123V12.544C103.123 11.524 102.775 11.128 102.007 11.128C101.059 11.128 100.627 11.764 100.627 12.868V16ZM107.246 9.016H105.89V7.744H107.246V9.016ZM107.21 16H105.914V10.096H107.21V16ZM110.066 18.58H108.77V10.096H110.006V10.84C110.486 10.228 111.05 9.964 111.806 9.964C113.402 9.964 114.434 11.176 114.434 13.048C114.434 14.92 113.366 16.132 111.806 16.132C111.062 16.132 110.498 15.88 110.066 15.34V18.58ZM111.59 14.992C112.562 14.992 113.138 14.308 113.138 13.048C113.138 11.776 112.562 11.104 111.59 11.104C110.606 11.104 110.042 11.776 110.042 13.048C110.042 14.308 110.606 14.992 111.59 14.992ZM116.884 18.58H115.588V10.096H116.824V10.84C117.304 10.228 117.868 9.964 118.624 9.964C120.22 9.964 121.252 11.176 121.252 13.048C121.252 14.92 120.184 16.132 118.624 16.132C117.88 16.132 117.316 15.88 116.884 15.34V18.58ZM118.408 14.992C119.38 14.992 119.956 14.308 119.956 13.048C119.956 11.776 119.38 11.104 118.408 11.104C117.424 11.104 116.86 11.776 116.86 13.048C116.86 14.308 117.424 14.992 118.408 14.992ZM123.737 9.016H122.381V7.744H123.737V9.016ZM123.701 16H122.405V10.096H123.701V16ZM126.558 16H125.262V10.096H126.498V10.852C126.942 10.24 127.482 9.964 128.262 9.964C129.654 9.964 130.35 10.732 130.35 12.436V16H129.054V12.544C129.054 11.524 128.706 11.128 127.938 11.128C126.99 11.128 126.558 11.764 126.558 12.868V16ZM134.389 18.712C132.793 18.712 131.701 17.956 131.629 16.564H132.985C133.093 17.344 133.549 17.608 134.389 17.608C135.421 17.608 135.805 17.068 135.805 15.88V15.244C135.325 15.82 134.809 16.06 134.089 16.06C132.493 16.06 131.449 14.872 131.449 13.012C131.449 11.164 132.493 9.964 134.089 9.964C134.845 9.964 135.373 10.24 135.865 10.804V10.096H137.101V15.832C137.101 17.644 136.273 18.712 134.389 18.712ZM134.281 14.92C135.265 14.92 135.829 14.26 135.829 13.012C135.829 11.764 135.265 11.104 134.281 11.104C133.321 11.104 132.733 11.764 132.733 13.012C132.733 14.26 133.321 14.92 134.281 14.92Z" fill="black"/><defs><linearGradient id="paint0_linear_3349_43836" x1="17.865" y1="12" x2="6.1333" y2="12" gradientUnits="userSpaceOnUse"><stop stop-color="#9CF5F5"/><stop offset="1" stop-color="#29D6D6"/></linearGradient></defs></svg>