<svg class="combination_mark" fill="none" height="10" viewBox="0 0 47 10" width="47" xmlns="http://www.w3.org/2000/svg"><g fill="#000"><path d="m4.71304 1.61725c.8364-.838952 2.19379-.838952 3.0302 0l4.88816 4.90105-1.5527 1.55748c-.8364.83895-2.1938.83895-3.03021 0l-3.36801-3.37828c-.05902-.05919-.12211-.11431-.18723-.16534-.2788-.24291-.5922-.44295-.93613-.58584-.29915-.12451-.60848-.20412-.92595-.24087z"/><path d="m.246077 7.95092c.109893.26128.268628.49806.468063.6981l3.02816-3.03738c-.19943-.20208-.4355-.3613-.69599-.46949-.25845-.10818-.53725-.16534-.82012-.16534-.28288 0-.56168.05512-.82217.1633-.26048.10615-.496549.26537-.695985.46541-.1974.20004-.356135.43683-.463993.69811s-.1628042.54093-.1628042.82466c0 .28374.0569812.56339.1648392.82263z"/><g clip-rule="evenodd" fill-rule="evenodd"><path d="m20.2223 1.10986c.2677 0 .5355.03765.7871.12909h.0054c.9531.33346 1.494 1.00577 1.5796 2.01154.0804.98426-.2677 1.77489-1.1405 2.30198-.0192.01157-.0377.02314-.057.03521l-.0001.00003c-.0345.02157-.0716.04475-.1196.07233l1.9021 2.92588-1.6305-.00538-1.7549-2.70536h-1.3762v2.70536h-1.4404l.0053-7.4653s2.2169-.00538 3.2397-.00538zm-1.7939 1.28545v2.1729l1.8046-.01076c.5992 0 .9478-.53784.9317-1.10796-.0161-.57011-.3443-1.0488-.9317-1.0488z"/><path d="m44.9773 6.95086.8032.87669c-.4123.39263-.8835.65079-1.4297.77988-1.3708.32808-2.7149-.18825-3.3681-1.29621-1.1245-1.90935.1981-4.28663 2.415-4.33504 1.7938-.04302 2.9933 1.28545 2.763 3.05497-.0161.10219-.0728.29768-.1132.39922h-3.9403c.218.92146 1.6332 1.44021 2.8701.52049zm-2.8701-1.68104 2.686.00303c-.0267-.64541-.5013-1.04886-1.2188-1.09189-.7015-.04303-1.3762.43269-1.4672 1.08886z"/><path d="m29.2825 5.8429c.0107-1.62429-1.2691-2.8721-2.9397-2.8721-1.6654.00538-2.9184 1.22629-2.9184 2.85597-.0053 1.62967 1.2423 2.86671 2.9023 2.87209 1.676.00538 2.9451-1.22629 2.9558-2.85596zm-2.9451-1.5221c.8621-.00538 1.5315.65617 1.5315 1.51134 0 .85518-.6801 1.51673-1.5261 1.51673-.8461 0-1.494-.65617-1.5047-1.51135-.0107-.84442.6533-1.51134 1.4993-1.51672z"/></g><path d="m30.241 3.09451h1.3816l.0321 3.23245c0 .70942.4658 1.08107 1.178 1.03805.573-.03227.9425-.4249.9639-1.10259.0268-.94123.0214-3.16253.0214-3.16253h1.403s.0267 2.20517-.0161 3.2701c-.0643 1.38764-1.0067 2.29122-2.3615 2.3235-1.4565.03227-2.6024-.94177-2.6024-2.19442z"/><path d="m39.984 8.57516v-1.30158l-.7015.06454c-.5676.03227-.8353-.20438-.846-.76912v-2.17828h1.4243v-1.30696h-1.4243v-1.51673h-1.2423l-.0691.87078c-.06.45232-.2715.64434-.627.65133h-.3427v1.31234h.8835s-.0107 1.79641.0107 2.53325c.0214.84442.4819 1.45757 1.2423 1.6727.5623.16136 1.1245.09144 1.6921-.03227z"/></g></svg>