<svg class="route-modal__logo rm-dark" width="15" height="10" viewBox="0 0 15 10" fill="none" xmlns="http://www.w3.org/2000/svg"><path d="M5.56986 1.16976C6.55833 0.178276 8.1625 0.178276 9.15098 1.16976L14.9279 6.96187L13.0929 8.80251C12.1044 9.794 10.5002 9.794 9.51173 8.80251L5.53137 4.81003C5.46163 4.74007 5.38707 4.67494 5.31011 4.61463C4.98062 4.32756 4.61024 4.09115 4.20379 3.92228C3.85024 3.77512 3.48468 3.68104 3.10949 3.63762L5.56986 1.16976Z" fill="#8D8D90"/><path d="M0.290756 8.65495C0.420629 8.96373 0.608223 9.24357 0.843918 9.47998L4.42263 5.89037C4.18694 5.65155 3.90795 5.46338 3.60011 5.33553C3.29466 5.20767 2.96517 5.14012 2.63087 5.14012C2.29657 5.14012 1.96708 5.20526 1.65923 5.33311C1.35138 5.45856 1.0724 5.64672 0.836703 5.88313C0.603413 6.11955 0.415819 6.39938 0.288351 6.70817C0.160884 7.01695 0.0959473 7.34744 0.0959473 7.68276C0.0959473 8.01808 0.163289 8.34858 0.290756 8.65495Z" fill="#8D8D90"/></svg>