<svg class="route-modal__route rm-dark" width="35" height="10" viewBox="0 0 35 10" fill="none" xmlns="http://www.w3.org/2000/svg"><path fillRule="evenodd" clipRule="evenodd" d="M3.89892 0.57019C4.21533 0.57019 4.53175 0.614685 4.82918 0.722742H4.83551C5.96195 1.11683 6.60111 1.91137 6.70236 3.1C6.79728 4.26321 6.38594 5.19759 5.35443 5.82051C5.33174 5.83418 5.30986 5.84786 5.28705 5.86212L5.287 5.86215C5.24621 5.88765 5.20238 5.91504 5.1456 5.94763L7.39356 9.40547L5.46659 9.39911L3.39265 6.20189H1.76628V9.39911H0.0639648L0.0702932 0.576547C0.0702932 0.576547 2.69021 0.57019 3.89892 0.57019ZM1.77894 2.08935V4.6573L3.91158 4.64459C4.61971 4.64459 5.03169 4.00896 5.0127 3.33519C4.99372 2.66142 4.60579 2.09571 3.91158 2.09571L1.77894 2.08935Z" fill="#8D8D90"/><path fillRule="evenodd" clipRule="evenodd" d="M33.1547 7.47314L34.1039 8.50922C33.6167 8.97324 33.0598 9.27834 32.4143 9.43089C30.7942 9.81862 29.2058 9.20842 28.4338 7.89902C27.1048 5.64253 28.6679 2.83303 31.2878 2.77583C33.4078 2.72498 34.8254 4.29499 34.5532 6.38621C34.5343 6.50698 34.4672 6.73802 34.4194 6.85802H29.7627C30.0204 7.94702 31.6928 8.56007 33.1547 7.47314ZM29.7627 5.48647L32.9371 5.49006C32.9055 4.7273 32.3447 4.25049 31.4967 4.19964C30.6677 4.14879 29.8703 4.711 29.7627 5.48647Z" fill="#8D8D90"/><path fillRule="evenodd" clipRule="evenodd" d="M14.6064 6.16374C14.6191 4.24414 13.1066 2.76947 11.1322 2.76947C9.16407 2.77583 7.68324 4.21871 7.68324 6.14467C7.67692 8.07064 9.15141 9.53259 11.1132 9.53895C13.0939 9.5453 14.5938 8.08971 14.6064 6.16374ZM11.1258 4.36491C12.1447 4.35855 12.9357 5.14038 12.9357 6.15103C12.9357 7.16169 12.132 7.94351 11.1322 7.94351C10.1323 7.94351 9.36657 7.16804 9.35392 6.15739C9.34126 5.15945 10.126 4.37126 11.1258 4.36491Z" fill="#8D8D90"/><path d="M15.7392 2.91567H17.3719L17.4099 6.73582C17.4099 7.57421 17.9604 8.01343 18.8021 7.96258C19.4792 7.92445 19.9159 7.46044 19.9412 6.65954C19.9728 5.54718 19.9665 2.92203 19.9665 2.92203H21.6245C21.6245 2.92203 21.6562 5.52812 21.6055 6.78667C21.5296 8.4266 20.4158 9.49446 18.8147 9.53259C17.0934 9.57073 15.7392 8.4196 15.7392 6.93922V2.91567Z" fill="#8D8D90"/><path d="M27.2535 9.39276V7.85453L26.4245 7.93081C25.7537 7.96895 25.4373 7.68927 25.4247 7.02185V4.44755H27.108V2.90296H25.4247V1.11048H23.9565L23.8749 2.13957C23.804 2.67413 23.554 2.90105 23.1338 2.90932H22.7288V4.46026H23.773C23.773 4.46026 23.7603 6.58327 23.7856 7.45408C23.8109 8.45203 24.3552 9.17664 25.2538 9.4309C25.9183 9.62159 26.5827 9.53896 27.2535 9.39276Z" fill="#8D8D90"/></svg>