<svg class="combination_mark small" fill="none" height="9" viewBox="0 0 41 9" width="41" xmlns="http://www.w3.org/2000/svg"><g fill="#000"><path d="m4.09827 1.53689c.72731-.729525 1.90764-.729525 2.63496 0l4.25057 4.26178-1.35018 1.35433c-.72731.72952-1.90764.72952-2.63495 0l-2.92871-2.93763c-.05132-.05148-.10618-.0994-.16281-.14378-.24244-.21122-.51496-.38517-.81402-.50942-.26014-.10828-.52912-.1775-.80518-.20945z"/><path d="m.213956 7.04442c.09556.2272.233589.4331.407012.60705l2.633182-2.6412c-.17342-.17572-.37869-.31417-.6052-.40825-.22475-.09407-.46718-.14377-.71316-.14377s-.48841.04792-.71492.142c-.226514.0923-.431789.23075-.605211.4047-.171653.17395-.309683.37985-.403472.60705-.09379.2272-.1415693.47037-.1415693.7171 0 .24672.0495493.4899.1433383.71532z"/><g clip-rule="evenodd" fill-rule="evenodd"><path d="m17.5846 1.0957c.2328 0 .4656.03274.6845.11225h.0046c.8289.28997 1.2991.87458 1.3736 1.74917.0699.85587-.2328 1.54338-.9917 2.00172-.0167.01006-.0328.02012-.0496.03061l-.0001.00003c-.03.01876-.0622.03892-.104.0629l1.654 2.54424-1.4178-.00468-1.526-2.35249h-1.1967v2.35249h-1.2525l.0046-6.49156s1.9277-.00468 2.8171-.00468zm-1.5599 1.11779v1.88947l1.5692-.00935c.5211 0 .8242-.46769.8102-.96345-.014-.49575-.2994-.912-.8102-.912z"/><path d="m39.1107 6.17483.6985.76234c-.3586.34142-.7683.56591-1.2433.67815-1.192.2853-2.3607-.16369-2.9288-1.12713-.9778-1.66031.1723-3.72751 2.1-3.7696 1.5599-.03742 2.6029 1.11778 2.4027 2.65649-.014.08886-.0633.25886-.0985.34715h-3.4264c.1896.80127 1.4202 1.25236 2.4958.4526zm-2.4958-1.46177 2.3358.00263c-.0233-.56123-.436-.91206-1.0599-.94947-.61-.03742-1.1967.37625-1.2759.94684z"/><path d="m25.4631 5.21139c.0093-1.41243-1.1036-2.49748-2.5563-2.49748-1.4481.00468-2.5377 1.06634-2.5377 2.48345-.0047 1.4171 1.0802 2.49279 2.5237 2.49747 1.4574.00468 2.561-1.06634 2.5703-2.48344zm-2.561-1.32357c.7497-.00468 1.3317.57058 1.3317 1.31421s-.5913 1.31889-1.327 1.31889-1.2991-.57058-1.3085-1.31421c-.0093-.73428.5681-1.31421 1.3038-1.31889z"/></g><path d="m26.2966 2.82148h1.2013l.0279 2.81083c0 .61689.4051.94006 1.0244.90265.4982-.02806.8195-.36948.8382-.95877.0232-.81846.0186-2.75003.0186-2.75003h1.2199s.0233 1.91754-.0139 2.84357c-.0559 1.20664-.8754 1.99237-2.0535 2.02043-1.2665.02806-2.2629-.81893-2.2629-1.90819z"/><path d="m34.7687 7.58727v-1.13182l-.61.05613c-.4935.02806-.7263-.17773-.7357-.6688v-1.89415h1.2386v-1.1365h-1.2386v-1.31889h-1.0802l-.0601.7572c-.0521.39333-.2361.56029-.5452.56637h-.298v1.14117h.7682s-.0093 1.56209.0094 2.20283c.0186.73427.419 1.26744 1.0802 1.45452.4889.14031.9778.07951 1.4714-.02806z"/></g></svg>